<svg xmlns="http://www.w3.org/2000/svg" xmlns:xlink="http://www.w3.org/1999/xlink" width="480.373" height="290.643" viewBox="0 0 480.373 290.643">
  <defs>
    <clipPath id="clip-path">
      <rect width="480.075" height="290.643" fill="none"/>
    </clipPath>
    <clipPath id="clip-path-2">
      <rect id="Rectangle_1" data-name="Rectangle 1" width="768.075" height="400.643" fill="none"/>
    </clipPath>
    <clipPath id="clip-path-3">
      <rect width="401.075" height="211.643" fill="none"/>
    </clipPath>
    <clipPath id="clip-path-4">
      <rect id="Rectangle_2" data-name="Rectangle 2" width="689.075" height="322.643" fill="none"/>
    </clipPath>
  </defs>
  <g id="Group_34" data-name="Group 34" transform="translate(-576.373 -340.305)">
    <rect id="Rectangle_1-2" data-name="Rectangle 1" width="480" height="290" transform="translate(576.746 340.61)" fill="#b0e0e6"/>
    <rect id="Rectangle_2-2" data-name="Rectangle 2" width="480" height="290" transform="translate(576.746 340.61)" opacity="0.6"/>
    <g id="Repeat_Grid_2" data-name="Repeat Grid 2" transform="translate(576.373 340.305)" clip-path="url(#clip-path)">
      <g transform="translate(-576.373 -340.305)">
        <g id="Repeat_Grid_2-2" data-name="Repeat Grid 2" transform="translate(576.373 340.305)" clip-path="url(#clip-path-2)">
          <g id="Group_1" data-name="Group 1" transform="translate(-318.627 -266.695)">
            <path id="Path_12" data-name="Path 12" d="M141.925,66.634a8.7,8.7,0,0,0,1.826-.7c.07,1.124.281,4.215-1.9,5.83-.281-.211-.632-.351-.843-.492l.913-4.636ZM105.679,52.8a15.847,15.847,0,0,1,4.425-3.3c-15.243,20.582,14.611,33.717,8.359,51.349,4.987-2.74,7.586-7.024,7.727-11.59.421-12.082-18.193-15.313-8.219-33.085-3.793,11.942-.351,16.156,8.219,22.478-1.545-3.723.632-9.132,5.2-11.942l-6.884-2.88,9.483,2.388c-4.285,2.178-8.359,9.413-4.847,13.346,2.318,2.6,6.884.913,8.851,5.83,2.74-1.616,2.88-3.582,3.091-6.182a5.936,5.936,0,0,1,.632,3.582c2.88-2.74,2.529-8.5-1.475-10.326a21.86,21.86,0,0,0-4.5,1.9c-2.318,1.194-1.264,2.6-4.215,2.388,0,0-1.124-1.054,2.88-3.161a31.737,31.737,0,0,1,5.339-2.318l.913-4.566a7.162,7.162,0,0,0-1.686-1.756c-.843-.7-2.178-1.4-3.091-2.107-.351-.281-.843-.351-.913-.632.7-1.475,4.5-.983,5.971-.843a8.939,8.939,0,0,1,2.529-.211c-2.88-2.669-10.256-8.078-13.7-10.747a21.285,21.285,0,0,0-2.6-4.847,10.117,10.117,0,0,1,3.512,4.285l1.967,1.264c1.194-6.884-1.335-18.4-13.908-17.35a10.717,10.717,0,0,1,3.372,6.252c-13.417-18.826-41.3-3.723-39.9,13.206.913-1.826,6.533-7.446,11.52-8.078C82.919,51.672,72.453,67.056,83.271,79.77c-3.231-10.747,3.3-22.338,11.169-26.693-23.11,25.148.07,37.3,8.64,51.559,8.5-16.3-22.548-18.966-10.818-43.2-4.074,15.735,4.355,23.251,12.293,28.519-7.305-11.028-6.462-23.672-.14-35.122-4.987,4.285-9.343,10.607-8.57,20.933-2.529-8.781.562-16.648,7.024-22.408-4.355-5.058-3.582-13.487,3.091-15.032a8.337,8.337,0,0,1,9.132,4.987c-6.673-9.062-19.317.211-9.413,9.483ZM89.593,42.681c6.111-9.272,20.511-11.59,27.957-3.512C108.067,32.987,96.9,36.008,89.593,42.681Zm24.867,32.8c-7.024-10.818-7.516-21.284,3.582-28.941-9.764,10.26-7.442,19.387-3.582,28.941ZM103.782,63.333c1.124,15.735,20.02,26.833,11.1,43.622C112.845,93.819,96.548,84.266,103.782,63.333Zm9.553-19.106c-1.756,1.686-4.074.07-8.289,2.74-.913-6.252,6.533-5.967,8.289-2.74Zm13.346,8.71c1.054.421,6.322,6.673,7.1,8.008-2.459-2.107-4.5-3.934-7.235-5.971l-2.107.913.421-1.264-4.425-1.264,3.653-1.335c1.756-.632,1.194-1.4.351-2.318,1.475.421,2.74,1.194,2.248,3.231ZM126.05,102.6a10.812,10.812,0,0,0-.07-6.673c2.178-3.934,3.161-9.834,1.264-13.979C135.322,87.778,137.289,98.877,126.05,102.6Z" transform="translate(239.911 235.383)" fill="#747474"/>
          </g>
          <g id="Group_2" data-name="Group 2" transform="translate(-172.627 -266.695)">
            <path id="Path_12-2" data-name="Path 12" d="M141.925,66.634a8.7,8.7,0,0,0,1.826-.7c.07,1.124.281,4.215-1.9,5.83-.281-.211-.632-.351-.843-.492l.913-4.636ZM105.679,52.8a15.847,15.847,0,0,1,4.425-3.3c-15.243,20.582,14.611,33.717,8.359,51.349,4.987-2.74,7.586-7.024,7.727-11.59.421-12.082-18.193-15.313-8.219-33.085-3.793,11.942-.351,16.156,8.219,22.478-1.545-3.723.632-9.132,5.2-11.942l-6.884-2.88,9.483,2.388c-4.285,2.178-8.359,9.413-4.847,13.346,2.318,2.6,6.884.913,8.851,5.83,2.74-1.616,2.88-3.582,3.091-6.182a5.936,5.936,0,0,1,.632,3.582c2.88-2.74,2.529-8.5-1.475-10.326a21.86,21.86,0,0,0-4.5,1.9c-2.318,1.194-1.264,2.6-4.215,2.388,0,0-1.124-1.054,2.88-3.161a31.737,31.737,0,0,1,5.339-2.318l.913-4.566a7.162,7.162,0,0,0-1.686-1.756c-.843-.7-2.178-1.4-3.091-2.107-.351-.281-.843-.351-.913-.632.7-1.475,4.5-.983,5.971-.843a8.939,8.939,0,0,1,2.529-.211c-2.88-2.669-10.256-8.078-13.7-10.747a21.285,21.285,0,0,0-2.6-4.847,10.117,10.117,0,0,1,3.512,4.285l1.967,1.264c1.194-6.884-1.335-18.4-13.908-17.35a10.717,10.717,0,0,1,3.372,6.252c-13.417-18.826-41.3-3.723-39.9,13.206.913-1.826,6.533-7.446,11.52-8.078C82.919,51.672,72.453,67.056,83.271,79.77c-3.231-10.747,3.3-22.338,11.169-26.693-23.11,25.148.07,37.3,8.64,51.559,8.5-16.3-22.548-18.966-10.818-43.2-4.074,15.735,4.355,23.251,12.293,28.519-7.305-11.028-6.462-23.672-.14-35.122-4.987,4.285-9.343,10.607-8.57,20.933-2.529-8.781.562-16.648,7.024-22.408-4.355-5.058-3.582-13.487,3.091-15.032a8.337,8.337,0,0,1,9.132,4.987c-6.673-9.062-19.317.211-9.413,9.483ZM89.593,42.681c6.111-9.272,20.511-11.59,27.957-3.512C108.067,32.987,96.9,36.008,89.593,42.681Zm24.867,32.8c-7.024-10.818-7.516-21.284,3.582-28.941-9.764,10.26-7.442,19.387-3.582,28.941ZM103.782,63.333c1.124,15.735,20.02,26.833,11.1,43.622C112.845,93.819,96.548,84.266,103.782,63.333Zm9.553-19.106c-1.756,1.686-4.074.07-8.289,2.74-.913-6.252,6.533-5.967,8.289-2.74Zm13.346,8.71c1.054.421,6.322,6.673,7.1,8.008-2.459-2.107-4.5-3.934-7.235-5.971l-2.107.913.421-1.264-4.425-1.264,3.653-1.335c1.756-.632,1.194-1.4.351-2.318,1.475.421,2.74,1.194,2.248,3.231ZM126.05,102.6a10.812,10.812,0,0,0-.07-6.673c2.178-3.934,3.161-9.834,1.264-13.979C135.322,87.778,137.289,98.877,126.05,102.6Z" transform="translate(239.911 235.383)" fill="#747474"/>
          </g>
          <g id="Group_3" data-name="Group 3" transform="translate(-26.627 -266.695)">
            <path id="Path_12-3" data-name="Path 12" d="M141.925,66.634a8.7,8.7,0,0,0,1.826-.7c.07,1.124.281,4.215-1.9,5.83-.281-.211-.632-.351-.843-.492l.913-4.636ZM105.679,52.8a15.847,15.847,0,0,1,4.425-3.3c-15.243,20.582,14.611,33.717,8.359,51.349,4.987-2.74,7.586-7.024,7.727-11.59.421-12.082-18.193-15.313-8.219-33.085-3.793,11.942-.351,16.156,8.219,22.478-1.545-3.723.632-9.132,5.2-11.942l-6.884-2.88,9.483,2.388c-4.285,2.178-8.359,9.413-4.847,13.346,2.318,2.6,6.884.913,8.851,5.83,2.74-1.616,2.88-3.582,3.091-6.182a5.936,5.936,0,0,1,.632,3.582c2.88-2.74,2.529-8.5-1.475-10.326a21.86,21.86,0,0,0-4.5,1.9c-2.318,1.194-1.264,2.6-4.215,2.388,0,0-1.124-1.054,2.88-3.161a31.737,31.737,0,0,1,5.339-2.318l.913-4.566a7.162,7.162,0,0,0-1.686-1.756c-.843-.7-2.178-1.4-3.091-2.107-.351-.281-.843-.351-.913-.632.7-1.475,4.5-.983,5.971-.843a8.939,8.939,0,0,1,2.529-.211c-2.88-2.669-10.256-8.078-13.7-10.747a21.285,21.285,0,0,0-2.6-4.847,10.117,10.117,0,0,1,3.512,4.285l1.967,1.264c1.194-6.884-1.335-18.4-13.908-17.35a10.717,10.717,0,0,1,3.372,6.252c-13.417-18.826-41.3-3.723-39.9,13.206.913-1.826,6.533-7.446,11.52-8.078C82.919,51.672,72.453,67.056,83.271,79.77c-3.231-10.747,3.3-22.338,11.169-26.693-23.11,25.148.07,37.3,8.64,51.559,8.5-16.3-22.548-18.966-10.818-43.2-4.074,15.735,4.355,23.251,12.293,28.519-7.305-11.028-6.462-23.672-.14-35.122-4.987,4.285-9.343,10.607-8.57,20.933-2.529-8.781.562-16.648,7.024-22.408-4.355-5.058-3.582-13.487,3.091-15.032a8.337,8.337,0,0,1,9.132,4.987c-6.673-9.062-19.317.211-9.413,9.483ZM89.593,42.681c6.111-9.272,20.511-11.59,27.957-3.512C108.067,32.987,96.9,36.008,89.593,42.681Zm24.867,32.8c-7.024-10.818-7.516-21.284,3.582-28.941-9.764,10.26-7.442,19.387-3.582,28.941ZM103.782,63.333c1.124,15.735,20.02,26.833,11.1,43.622C112.845,93.819,96.548,84.266,103.782,63.333Zm9.553-19.106c-1.756,1.686-4.074.07-8.289,2.74-.913-6.252,6.533-5.967,8.289-2.74Zm13.346,8.71c1.054.421,6.322,6.673,7.1,8.008-2.459-2.107-4.5-3.934-7.235-5.971l-2.107.913.421-1.264-4.425-1.264,3.653-1.335c1.756-.632,1.194-1.4.351-2.318,1.475.421,2.74,1.194,2.248,3.231ZM126.05,102.6a10.812,10.812,0,0,0-.07-6.673c2.178-3.934,3.161-9.834,1.264-13.979C135.322,87.778,137.289,98.877,126.05,102.6Z" transform="translate(239.911 235.383)" fill="#747474"/>
          </g>
          <g id="Group_4" data-name="Group 4" transform="translate(119.373 -266.695)">
            <path id="Path_12-4" data-name="Path 12" d="M141.925,66.634a8.7,8.7,0,0,0,1.826-.7c.07,1.124.281,4.215-1.9,5.83-.281-.211-.632-.351-.843-.492l.913-4.636ZM105.679,52.8a15.847,15.847,0,0,1,4.425-3.3c-15.243,20.582,14.611,33.717,8.359,51.349,4.987-2.74,7.586-7.024,7.727-11.59.421-12.082-18.193-15.313-8.219-33.085-3.793,11.942-.351,16.156,8.219,22.478-1.545-3.723.632-9.132,5.2-11.942l-6.884-2.88,9.483,2.388c-4.285,2.178-8.359,9.413-4.847,13.346,2.318,2.6,6.884.913,8.851,5.83,2.74-1.616,2.88-3.582,3.091-6.182a5.936,5.936,0,0,1,.632,3.582c2.88-2.74,2.529-8.5-1.475-10.326a21.86,21.86,0,0,0-4.5,1.9c-2.318,1.194-1.264,2.6-4.215,2.388,0,0-1.124-1.054,2.88-3.161a31.737,31.737,0,0,1,5.339-2.318l.913-4.566a7.162,7.162,0,0,0-1.686-1.756c-.843-.7-2.178-1.4-3.091-2.107-.351-.281-.843-.351-.913-.632.7-1.475,4.5-.983,5.971-.843a8.939,8.939,0,0,1,2.529-.211c-2.88-2.669-10.256-8.078-13.7-10.747a21.285,21.285,0,0,0-2.6-4.847,10.117,10.117,0,0,1,3.512,4.285l1.967,1.264c1.194-6.884-1.335-18.4-13.908-17.35a10.717,10.717,0,0,1,3.372,6.252c-13.417-18.826-41.3-3.723-39.9,13.206.913-1.826,6.533-7.446,11.52-8.078C82.919,51.672,72.453,67.056,83.271,79.77c-3.231-10.747,3.3-22.338,11.169-26.693-23.11,25.148.07,37.3,8.64,51.559,8.5-16.3-22.548-18.966-10.818-43.2-4.074,15.735,4.355,23.251,12.293,28.519-7.305-11.028-6.462-23.672-.14-35.122-4.987,4.285-9.343,10.607-8.57,20.933-2.529-8.781.562-16.648,7.024-22.408-4.355-5.058-3.582-13.487,3.091-15.032a8.337,8.337,0,0,1,9.132,4.987c-6.673-9.062-19.317.211-9.413,9.483ZM89.593,42.681c6.111-9.272,20.511-11.59,27.957-3.512C108.067,32.987,96.9,36.008,89.593,42.681Zm24.867,32.8c-7.024-10.818-7.516-21.284,3.582-28.941-9.764,10.26-7.442,19.387-3.582,28.941ZM103.782,63.333c1.124,15.735,20.02,26.833,11.1,43.622C112.845,93.819,96.548,84.266,103.782,63.333Zm9.553-19.106c-1.756,1.686-4.074.07-8.289,2.74-.913-6.252,6.533-5.967,8.289-2.74Zm13.346,8.71c1.054.421,6.322,6.673,7.1,8.008-2.459-2.107-4.5-3.934-7.235-5.971l-2.107.913.421-1.264-4.425-1.264,3.653-1.335c1.756-.632,1.194-1.4.351-2.318,1.475.421,2.74,1.194,2.248,3.231ZM126.05,102.6a10.812,10.812,0,0,0-.07-6.673c2.178-3.934,3.161-9.834,1.264-13.979C135.322,87.778,137.289,98.877,126.05,102.6Z" transform="translate(239.911 235.383)" fill="#747474"/>
          </g>
          <g id="Group_5" data-name="Group 5" transform="translate(265.373 -266.695)">
            <path id="Path_12-5" data-name="Path 12" d="M141.925,66.634a8.7,8.7,0,0,0,1.826-.7c.07,1.124.281,4.215-1.9,5.83-.281-.211-.632-.351-.843-.492l.913-4.636ZM105.679,52.8a15.847,15.847,0,0,1,4.425-3.3c-15.243,20.582,14.611,33.717,8.359,51.349,4.987-2.74,7.586-7.024,7.727-11.59.421-12.082-18.193-15.313-8.219-33.085-3.793,11.942-.351,16.156,8.219,22.478-1.545-3.723.632-9.132,5.2-11.942l-6.884-2.88,9.483,2.388c-4.285,2.178-8.359,9.413-4.847,13.346,2.318,2.6,6.884.913,8.851,5.83,2.74-1.616,2.88-3.582,3.091-6.182a5.936,5.936,0,0,1,.632,3.582c2.88-2.74,2.529-8.5-1.475-10.326a21.86,21.86,0,0,0-4.5,1.9c-2.318,1.194-1.264,2.6-4.215,2.388,0,0-1.124-1.054,2.88-3.161a31.737,31.737,0,0,1,5.339-2.318l.913-4.566a7.162,7.162,0,0,0-1.686-1.756c-.843-.7-2.178-1.4-3.091-2.107-.351-.281-.843-.351-.913-.632.7-1.475,4.5-.983,5.971-.843a8.939,8.939,0,0,1,2.529-.211c-2.88-2.669-10.256-8.078-13.7-10.747a21.285,21.285,0,0,0-2.6-4.847,10.117,10.117,0,0,1,3.512,4.285l1.967,1.264c1.194-6.884-1.335-18.4-13.908-17.35a10.717,10.717,0,0,1,3.372,6.252c-13.417-18.826-41.3-3.723-39.9,13.206.913-1.826,6.533-7.446,11.52-8.078C82.919,51.672,72.453,67.056,83.271,79.77c-3.231-10.747,3.3-22.338,11.169-26.693-23.11,25.148.07,37.3,8.64,51.559,8.5-16.3-22.548-18.966-10.818-43.2-4.074,15.735,4.355,23.251,12.293,28.519-7.305-11.028-6.462-23.672-.14-35.122-4.987,4.285-9.343,10.607-8.57,20.933-2.529-8.781.562-16.648,7.024-22.408-4.355-5.058-3.582-13.487,3.091-15.032a8.337,8.337,0,0,1,9.132,4.987c-6.673-9.062-19.317.211-9.413,9.483ZM89.593,42.681c6.111-9.272,20.511-11.59,27.957-3.512C108.067,32.987,96.9,36.008,89.593,42.681Zm24.867,32.8c-7.024-10.818-7.516-21.284,3.582-28.941-9.764,10.26-7.442,19.387-3.582,28.941ZM103.782,63.333c1.124,15.735,20.02,26.833,11.1,43.622C112.845,93.819,96.548,84.266,103.782,63.333Zm9.553-19.106c-1.756,1.686-4.074.07-8.289,2.74-.913-6.252,6.533-5.967,8.289-2.74Zm13.346,8.71c1.054.421,6.322,6.673,7.1,8.008-2.459-2.107-4.5-3.934-7.235-5.971l-2.107.913.421-1.264-4.425-1.264,3.653-1.335c1.756-.632,1.194-1.4.351-2.318,1.475.421,2.74,1.194,2.248,3.231ZM126.05,102.6a10.812,10.812,0,0,0-.07-6.673c2.178-3.934,3.161-9.834,1.264-13.979C135.322,87.778,137.289,98.877,126.05,102.6Z" transform="translate(239.911 235.383)" fill="#747474"/>
          </g>
          <g id="Group_6" data-name="Group 6" transform="translate(411.373 -266.695)">
            <path id="Path_12-6" data-name="Path 12" d="M141.925,66.634a8.7,8.7,0,0,0,1.826-.7c.07,1.124.281,4.215-1.9,5.83-.281-.211-.632-.351-.843-.492l.913-4.636ZM105.679,52.8a15.847,15.847,0,0,1,4.425-3.3c-15.243,20.582,14.611,33.717,8.359,51.349,4.987-2.74,7.586-7.024,7.727-11.59.421-12.082-18.193-15.313-8.219-33.085-3.793,11.942-.351,16.156,8.219,22.478-1.545-3.723.632-9.132,5.2-11.942l-6.884-2.88,9.483,2.388c-4.285,2.178-8.359,9.413-4.847,13.346,2.318,2.6,6.884.913,8.851,5.83,2.74-1.616,2.88-3.582,3.091-6.182a5.936,5.936,0,0,1,.632,3.582c2.88-2.74,2.529-8.5-1.475-10.326a21.86,21.86,0,0,0-4.5,1.9c-2.318,1.194-1.264,2.6-4.215,2.388,0,0-1.124-1.054,2.88-3.161a31.737,31.737,0,0,1,5.339-2.318l.913-4.566a7.162,7.162,0,0,0-1.686-1.756c-.843-.7-2.178-1.4-3.091-2.107-.351-.281-.843-.351-.913-.632.7-1.475,4.5-.983,5.971-.843a8.939,8.939,0,0,1,2.529-.211c-2.88-2.669-10.256-8.078-13.7-10.747a21.285,21.285,0,0,0-2.6-4.847,10.117,10.117,0,0,1,3.512,4.285l1.967,1.264c1.194-6.884-1.335-18.4-13.908-17.35a10.717,10.717,0,0,1,3.372,6.252c-13.417-18.826-41.3-3.723-39.9,13.206.913-1.826,6.533-7.446,11.52-8.078C82.919,51.672,72.453,67.056,83.271,79.77c-3.231-10.747,3.3-22.338,11.169-26.693-23.11,25.148.07,37.3,8.64,51.559,8.5-16.3-22.548-18.966-10.818-43.2-4.074,15.735,4.355,23.251,12.293,28.519-7.305-11.028-6.462-23.672-.14-35.122-4.987,4.285-9.343,10.607-8.57,20.933-2.529-8.781.562-16.648,7.024-22.408-4.355-5.058-3.582-13.487,3.091-15.032a8.337,8.337,0,0,1,9.132,4.987c-6.673-9.062-19.317.211-9.413,9.483ZM89.593,42.681c6.111-9.272,20.511-11.59,27.957-3.512C108.067,32.987,96.9,36.008,89.593,42.681Zm24.867,32.8c-7.024-10.818-7.516-21.284,3.582-28.941-9.764,10.26-7.442,19.387-3.582,28.941ZM103.782,63.333c1.124,15.735,20.02,26.833,11.1,43.622C112.845,93.819,96.548,84.266,103.782,63.333Zm9.553-19.106c-1.756,1.686-4.074.07-8.289,2.74-.913-6.252,6.533-5.967,8.289-2.74Zm13.346,8.71c1.054.421,6.322,6.673,7.1,8.008-2.459-2.107-4.5-3.934-7.235-5.971l-2.107.913.421-1.264-4.425-1.264,3.653-1.335c1.756-.632,1.194-1.4.351-2.318,1.475.421,2.74,1.194,2.248,3.231ZM126.05,102.6a10.812,10.812,0,0,0-.07-6.673c2.178-3.934,3.161-9.834,1.264-13.979C135.322,87.778,137.289,98.877,126.05,102.6Z" transform="translate(239.911 235.383)" fill="#747474"/>
          </g>
          <g id="Group_7" data-name="Group 7" transform="translate(-318.627 -110.695)">
            <path id="Path_12-7" data-name="Path 12" d="M141.925,66.634a8.7,8.7,0,0,0,1.826-.7c.07,1.124.281,4.215-1.9,5.83-.281-.211-.632-.351-.843-.492l.913-4.636ZM105.679,52.8a15.847,15.847,0,0,1,4.425-3.3c-15.243,20.582,14.611,33.717,8.359,51.349,4.987-2.74,7.586-7.024,7.727-11.59.421-12.082-18.193-15.313-8.219-33.085-3.793,11.942-.351,16.156,8.219,22.478-1.545-3.723.632-9.132,5.2-11.942l-6.884-2.88,9.483,2.388c-4.285,2.178-8.359,9.413-4.847,13.346,2.318,2.6,6.884.913,8.851,5.83,2.74-1.616,2.88-3.582,3.091-6.182a5.936,5.936,0,0,1,.632,3.582c2.88-2.74,2.529-8.5-1.475-10.326a21.86,21.86,0,0,0-4.5,1.9c-2.318,1.194-1.264,2.6-4.215,2.388,0,0-1.124-1.054,2.88-3.161a31.737,31.737,0,0,1,5.339-2.318l.913-4.566a7.162,7.162,0,0,0-1.686-1.756c-.843-.7-2.178-1.4-3.091-2.107-.351-.281-.843-.351-.913-.632.7-1.475,4.5-.983,5.971-.843a8.939,8.939,0,0,1,2.529-.211c-2.88-2.669-10.256-8.078-13.7-10.747a21.285,21.285,0,0,0-2.6-4.847,10.117,10.117,0,0,1,3.512,4.285l1.967,1.264c1.194-6.884-1.335-18.4-13.908-17.35a10.717,10.717,0,0,1,3.372,6.252c-13.417-18.826-41.3-3.723-39.9,13.206.913-1.826,6.533-7.446,11.52-8.078C82.919,51.672,72.453,67.056,83.271,79.77c-3.231-10.747,3.3-22.338,11.169-26.693-23.11,25.148.07,37.3,8.64,51.559,8.5-16.3-22.548-18.966-10.818-43.2-4.074,15.735,4.355,23.251,12.293,28.519-7.305-11.028-6.462-23.672-.14-35.122-4.987,4.285-9.343,10.607-8.57,20.933-2.529-8.781.562-16.648,7.024-22.408-4.355-5.058-3.582-13.487,3.091-15.032a8.337,8.337,0,0,1,9.132,4.987c-6.673-9.062-19.317.211-9.413,9.483ZM89.593,42.681c6.111-9.272,20.511-11.59,27.957-3.512C108.067,32.987,96.9,36.008,89.593,42.681Zm24.867,32.8c-7.024-10.818-7.516-21.284,3.582-28.941-9.764,10.26-7.442,19.387-3.582,28.941ZM103.782,63.333c1.124,15.735,20.02,26.833,11.1,43.622C112.845,93.819,96.548,84.266,103.782,63.333Zm9.553-19.106c-1.756,1.686-4.074.07-8.289,2.74-.913-6.252,6.533-5.967,8.289-2.74Zm13.346,8.71c1.054.421,6.322,6.673,7.1,8.008-2.459-2.107-4.5-3.934-7.235-5.971l-2.107.913.421-1.264-4.425-1.264,3.653-1.335c1.756-.632,1.194-1.4.351-2.318,1.475.421,2.74,1.194,2.248,3.231ZM126.05,102.6a10.812,10.812,0,0,0-.07-6.673c2.178-3.934,3.161-9.834,1.264-13.979C135.322,87.778,137.289,98.877,126.05,102.6Z" transform="translate(239.911 235.383)" fill="#747474"/>
          </g>
          <g id="Group_8" data-name="Group 8" transform="translate(-172.627 -110.695)">
            <path id="Path_12-8" data-name="Path 12" d="M141.925,66.634a8.7,8.7,0,0,0,1.826-.7c.07,1.124.281,4.215-1.9,5.83-.281-.211-.632-.351-.843-.492l.913-4.636ZM105.679,52.8a15.847,15.847,0,0,1,4.425-3.3c-15.243,20.582,14.611,33.717,8.359,51.349,4.987-2.74,7.586-7.024,7.727-11.59.421-12.082-18.193-15.313-8.219-33.085-3.793,11.942-.351,16.156,8.219,22.478-1.545-3.723.632-9.132,5.2-11.942l-6.884-2.88,9.483,2.388c-4.285,2.178-8.359,9.413-4.847,13.346,2.318,2.6,6.884.913,8.851,5.83,2.74-1.616,2.88-3.582,3.091-6.182a5.936,5.936,0,0,1,.632,3.582c2.88-2.74,2.529-8.5-1.475-10.326a21.86,21.86,0,0,0-4.5,1.9c-2.318,1.194-1.264,2.6-4.215,2.388,0,0-1.124-1.054,2.88-3.161a31.737,31.737,0,0,1,5.339-2.318l.913-4.566a7.162,7.162,0,0,0-1.686-1.756c-.843-.7-2.178-1.4-3.091-2.107-.351-.281-.843-.351-.913-.632.7-1.475,4.5-.983,5.971-.843a8.939,8.939,0,0,1,2.529-.211c-2.88-2.669-10.256-8.078-13.7-10.747a21.285,21.285,0,0,0-2.6-4.847,10.117,10.117,0,0,1,3.512,4.285l1.967,1.264c1.194-6.884-1.335-18.4-13.908-17.35a10.717,10.717,0,0,1,3.372,6.252c-13.417-18.826-41.3-3.723-39.9,13.206.913-1.826,6.533-7.446,11.52-8.078C82.919,51.672,72.453,67.056,83.271,79.77c-3.231-10.747,3.3-22.338,11.169-26.693-23.11,25.148.07,37.3,8.64,51.559,8.5-16.3-22.548-18.966-10.818-43.2-4.074,15.735,4.355,23.251,12.293,28.519-7.305-11.028-6.462-23.672-.14-35.122-4.987,4.285-9.343,10.607-8.57,20.933-2.529-8.781.562-16.648,7.024-22.408-4.355-5.058-3.582-13.487,3.091-15.032a8.337,8.337,0,0,1,9.132,4.987c-6.673-9.062-19.317.211-9.413,9.483ZM89.593,42.681c6.111-9.272,20.511-11.59,27.957-3.512C108.067,32.987,96.9,36.008,89.593,42.681Zm24.867,32.8c-7.024-10.818-7.516-21.284,3.582-28.941-9.764,10.26-7.442,19.387-3.582,28.941ZM103.782,63.333c1.124,15.735,20.02,26.833,11.1,43.622C112.845,93.819,96.548,84.266,103.782,63.333Zm9.553-19.106c-1.756,1.686-4.074.07-8.289,2.74-.913-6.252,6.533-5.967,8.289-2.74Zm13.346,8.71c1.054.421,6.322,6.673,7.1,8.008-2.459-2.107-4.5-3.934-7.235-5.971l-2.107.913.421-1.264-4.425-1.264,3.653-1.335c1.756-.632,1.194-1.4.351-2.318,1.475.421,2.74,1.194,2.248,3.231ZM126.05,102.6a10.812,10.812,0,0,0-.07-6.673c2.178-3.934,3.161-9.834,1.264-13.979C135.322,87.778,137.289,98.877,126.05,102.6Z" transform="translate(239.911 235.383)" fill="#747474"/>
          </g>
          <g id="Group_9" data-name="Group 9" transform="translate(-26.627 -110.695)">
            <path id="Path_12-9" data-name="Path 12" d="M141.925,66.634a8.7,8.7,0,0,0,1.826-.7c.07,1.124.281,4.215-1.9,5.83-.281-.211-.632-.351-.843-.492l.913-4.636ZM105.679,52.8a15.847,15.847,0,0,1,4.425-3.3c-15.243,20.582,14.611,33.717,8.359,51.349,4.987-2.74,7.586-7.024,7.727-11.59.421-12.082-18.193-15.313-8.219-33.085-3.793,11.942-.351,16.156,8.219,22.478-1.545-3.723.632-9.132,5.2-11.942l-6.884-2.88,9.483,2.388c-4.285,2.178-8.359,9.413-4.847,13.346,2.318,2.6,6.884.913,8.851,5.83,2.74-1.616,2.88-3.582,3.091-6.182a5.936,5.936,0,0,1,.632,3.582c2.88-2.74,2.529-8.5-1.475-10.326a21.86,21.86,0,0,0-4.5,1.9c-2.318,1.194-1.264,2.6-4.215,2.388,0,0-1.124-1.054,2.88-3.161a31.737,31.737,0,0,1,5.339-2.318l.913-4.566a7.162,7.162,0,0,0-1.686-1.756c-.843-.7-2.178-1.4-3.091-2.107-.351-.281-.843-.351-.913-.632.7-1.475,4.5-.983,5.971-.843a8.939,8.939,0,0,1,2.529-.211c-2.88-2.669-10.256-8.078-13.7-10.747a21.285,21.285,0,0,0-2.6-4.847,10.117,10.117,0,0,1,3.512,4.285l1.967,1.264c1.194-6.884-1.335-18.4-13.908-17.35a10.717,10.717,0,0,1,3.372,6.252c-13.417-18.826-41.3-3.723-39.9,13.206.913-1.826,6.533-7.446,11.52-8.078C82.919,51.672,72.453,67.056,83.271,79.77c-3.231-10.747,3.3-22.338,11.169-26.693-23.11,25.148.07,37.3,8.64,51.559,8.5-16.3-22.548-18.966-10.818-43.2-4.074,15.735,4.355,23.251,12.293,28.519-7.305-11.028-6.462-23.672-.14-35.122-4.987,4.285-9.343,10.607-8.57,20.933-2.529-8.781.562-16.648,7.024-22.408-4.355-5.058-3.582-13.487,3.091-15.032a8.337,8.337,0,0,1,9.132,4.987c-6.673-9.062-19.317.211-9.413,9.483ZM89.593,42.681c6.111-9.272,20.511-11.59,27.957-3.512C108.067,32.987,96.9,36.008,89.593,42.681Zm24.867,32.8c-7.024-10.818-7.516-21.284,3.582-28.941-9.764,10.26-7.442,19.387-3.582,28.941ZM103.782,63.333c1.124,15.735,20.02,26.833,11.1,43.622C112.845,93.819,96.548,84.266,103.782,63.333Zm9.553-19.106c-1.756,1.686-4.074.07-8.289,2.74-.913-6.252,6.533-5.967,8.289-2.74Zm13.346,8.71c1.054.421,6.322,6.673,7.1,8.008-2.459-2.107-4.5-3.934-7.235-5.971l-2.107.913.421-1.264-4.425-1.264,3.653-1.335c1.756-.632,1.194-1.4.351-2.318,1.475.421,2.74,1.194,2.248,3.231ZM126.05,102.6a10.812,10.812,0,0,0-.07-6.673c2.178-3.934,3.161-9.834,1.264-13.979C135.322,87.778,137.289,98.877,126.05,102.6Z" transform="translate(239.911 235.383)" fill="#747474"/>
          </g>
          <g id="Group_10" data-name="Group 10" transform="translate(119.373 -110.695)">
            <path id="Path_12-10" data-name="Path 12" d="M141.925,66.634a8.7,8.7,0,0,0,1.826-.7c.07,1.124.281,4.215-1.9,5.83-.281-.211-.632-.351-.843-.492l.913-4.636ZM105.679,52.8a15.847,15.847,0,0,1,4.425-3.3c-15.243,20.582,14.611,33.717,8.359,51.349,4.987-2.74,7.586-7.024,7.727-11.59.421-12.082-18.193-15.313-8.219-33.085-3.793,11.942-.351,16.156,8.219,22.478-1.545-3.723.632-9.132,5.2-11.942l-6.884-2.88,9.483,2.388c-4.285,2.178-8.359,9.413-4.847,13.346,2.318,2.6,6.884.913,8.851,5.83,2.74-1.616,2.88-3.582,3.091-6.182a5.936,5.936,0,0,1,.632,3.582c2.88-2.74,2.529-8.5-1.475-10.326a21.86,21.86,0,0,0-4.5,1.9c-2.318,1.194-1.264,2.6-4.215,2.388,0,0-1.124-1.054,2.88-3.161a31.737,31.737,0,0,1,5.339-2.318l.913-4.566a7.162,7.162,0,0,0-1.686-1.756c-.843-.7-2.178-1.4-3.091-2.107-.351-.281-.843-.351-.913-.632.7-1.475,4.5-.983,5.971-.843a8.939,8.939,0,0,1,2.529-.211c-2.88-2.669-10.256-8.078-13.7-10.747a21.285,21.285,0,0,0-2.6-4.847,10.117,10.117,0,0,1,3.512,4.285l1.967,1.264c1.194-6.884-1.335-18.4-13.908-17.35a10.717,10.717,0,0,1,3.372,6.252c-13.417-18.826-41.3-3.723-39.9,13.206.913-1.826,6.533-7.446,11.52-8.078C82.919,51.672,72.453,67.056,83.271,79.77c-3.231-10.747,3.3-22.338,11.169-26.693-23.11,25.148.07,37.3,8.64,51.559,8.5-16.3-22.548-18.966-10.818-43.2-4.074,15.735,4.355,23.251,12.293,28.519-7.305-11.028-6.462-23.672-.14-35.122-4.987,4.285-9.343,10.607-8.57,20.933-2.529-8.781.562-16.648,7.024-22.408-4.355-5.058-3.582-13.487,3.091-15.032a8.337,8.337,0,0,1,9.132,4.987c-6.673-9.062-19.317.211-9.413,9.483ZM89.593,42.681c6.111-9.272,20.511-11.59,27.957-3.512C108.067,32.987,96.9,36.008,89.593,42.681Zm24.867,32.8c-7.024-10.818-7.516-21.284,3.582-28.941-9.764,10.26-7.442,19.387-3.582,28.941ZM103.782,63.333c1.124,15.735,20.02,26.833,11.1,43.622C112.845,93.819,96.548,84.266,103.782,63.333Zm9.553-19.106c-1.756,1.686-4.074.07-8.289,2.74-.913-6.252,6.533-5.967,8.289-2.74Zm13.346,8.71c1.054.421,6.322,6.673,7.1,8.008-2.459-2.107-4.5-3.934-7.235-5.971l-2.107.913.421-1.264-4.425-1.264,3.653-1.335c1.756-.632,1.194-1.4.351-2.318,1.475.421,2.74,1.194,2.248,3.231ZM126.05,102.6a10.812,10.812,0,0,0-.07-6.673c2.178-3.934,3.161-9.834,1.264-13.979C135.322,87.778,137.289,98.877,126.05,102.6Z" transform="translate(239.911 235.383)" fill="#747474"/>
          </g>
          <g id="Group_11" data-name="Group 11" transform="translate(265.373 -110.695)">
            <path id="Path_12-11" data-name="Path 12" d="M141.925,66.634a8.7,8.7,0,0,0,1.826-.7c.07,1.124.281,4.215-1.9,5.83-.281-.211-.632-.351-.843-.492l.913-4.636ZM105.679,52.8a15.847,15.847,0,0,1,4.425-3.3c-15.243,20.582,14.611,33.717,8.359,51.349,4.987-2.74,7.586-7.024,7.727-11.59.421-12.082-18.193-15.313-8.219-33.085-3.793,11.942-.351,16.156,8.219,22.478-1.545-3.723.632-9.132,5.2-11.942l-6.884-2.88,9.483,2.388c-4.285,2.178-8.359,9.413-4.847,13.346,2.318,2.6,6.884.913,8.851,5.83,2.74-1.616,2.88-3.582,3.091-6.182a5.936,5.936,0,0,1,.632,3.582c2.88-2.74,2.529-8.5-1.475-10.326a21.86,21.86,0,0,0-4.5,1.9c-2.318,1.194-1.264,2.6-4.215,2.388,0,0-1.124-1.054,2.88-3.161a31.737,31.737,0,0,1,5.339-2.318l.913-4.566a7.162,7.162,0,0,0-1.686-1.756c-.843-.7-2.178-1.4-3.091-2.107-.351-.281-.843-.351-.913-.632.7-1.475,4.5-.983,5.971-.843a8.939,8.939,0,0,1,2.529-.211c-2.88-2.669-10.256-8.078-13.7-10.747a21.285,21.285,0,0,0-2.6-4.847,10.117,10.117,0,0,1,3.512,4.285l1.967,1.264c1.194-6.884-1.335-18.4-13.908-17.35a10.717,10.717,0,0,1,3.372,6.252c-13.417-18.826-41.3-3.723-39.9,13.206.913-1.826,6.533-7.446,11.52-8.078C82.919,51.672,72.453,67.056,83.271,79.77c-3.231-10.747,3.3-22.338,11.169-26.693-23.11,25.148.07,37.3,8.64,51.559,8.5-16.3-22.548-18.966-10.818-43.2-4.074,15.735,4.355,23.251,12.293,28.519-7.305-11.028-6.462-23.672-.14-35.122-4.987,4.285-9.343,10.607-8.57,20.933-2.529-8.781.562-16.648,7.024-22.408-4.355-5.058-3.582-13.487,3.091-15.032a8.337,8.337,0,0,1,9.132,4.987c-6.673-9.062-19.317.211-9.413,9.483ZM89.593,42.681c6.111-9.272,20.511-11.59,27.957-3.512C108.067,32.987,96.9,36.008,89.593,42.681Zm24.867,32.8c-7.024-10.818-7.516-21.284,3.582-28.941-9.764,10.26-7.442,19.387-3.582,28.941ZM103.782,63.333c1.124,15.735,20.02,26.833,11.1,43.622C112.845,93.819,96.548,84.266,103.782,63.333Zm9.553-19.106c-1.756,1.686-4.074.07-8.289,2.74-.913-6.252,6.533-5.967,8.289-2.74Zm13.346,8.71c1.054.421,6.322,6.673,7.1,8.008-2.459-2.107-4.5-3.934-7.235-5.971l-2.107.913.421-1.264-4.425-1.264,3.653-1.335c1.756-.632,1.194-1.4.351-2.318,1.475.421,2.74,1.194,2.248,3.231ZM126.05,102.6a10.812,10.812,0,0,0-.07-6.673c2.178-3.934,3.161-9.834,1.264-13.979C135.322,87.778,137.289,98.877,126.05,102.6Z" transform="translate(239.911 235.383)" fill="#747474"/>
          </g>
          <g id="Group_12" data-name="Group 12" transform="translate(411.373 -110.695)">
            <path id="Path_12-12" data-name="Path 12" d="M141.925,66.634a8.7,8.7,0,0,0,1.826-.7c.07,1.124.281,4.215-1.9,5.83-.281-.211-.632-.351-.843-.492l.913-4.636ZM105.679,52.8a15.847,15.847,0,0,1,4.425-3.3c-15.243,20.582,14.611,33.717,8.359,51.349,4.987-2.74,7.586-7.024,7.727-11.59.421-12.082-18.193-15.313-8.219-33.085-3.793,11.942-.351,16.156,8.219,22.478-1.545-3.723.632-9.132,5.2-11.942l-6.884-2.88,9.483,2.388c-4.285,2.178-8.359,9.413-4.847,13.346,2.318,2.6,6.884.913,8.851,5.83,2.74-1.616,2.88-3.582,3.091-6.182a5.936,5.936,0,0,1,.632,3.582c2.88-2.74,2.529-8.5-1.475-10.326a21.86,21.86,0,0,0-4.5,1.9c-2.318,1.194-1.264,2.6-4.215,2.388,0,0-1.124-1.054,2.88-3.161a31.737,31.737,0,0,1,5.339-2.318l.913-4.566a7.162,7.162,0,0,0-1.686-1.756c-.843-.7-2.178-1.4-3.091-2.107-.351-.281-.843-.351-.913-.632.7-1.475,4.5-.983,5.971-.843a8.939,8.939,0,0,1,2.529-.211c-2.88-2.669-10.256-8.078-13.7-10.747a21.285,21.285,0,0,0-2.6-4.847,10.117,10.117,0,0,1,3.512,4.285l1.967,1.264c1.194-6.884-1.335-18.4-13.908-17.35a10.717,10.717,0,0,1,3.372,6.252c-13.417-18.826-41.3-3.723-39.9,13.206.913-1.826,6.533-7.446,11.52-8.078C82.919,51.672,72.453,67.056,83.271,79.77c-3.231-10.747,3.3-22.338,11.169-26.693-23.11,25.148.07,37.3,8.64,51.559,8.5-16.3-22.548-18.966-10.818-43.2-4.074,15.735,4.355,23.251,12.293,28.519-7.305-11.028-6.462-23.672-.14-35.122-4.987,4.285-9.343,10.607-8.57,20.933-2.529-8.781.562-16.648,7.024-22.408-4.355-5.058-3.582-13.487,3.091-15.032a8.337,8.337,0,0,1,9.132,4.987c-6.673-9.062-19.317.211-9.413,9.483ZM89.593,42.681c6.111-9.272,20.511-11.59,27.957-3.512C108.067,32.987,96.9,36.008,89.593,42.681Zm24.867,32.8c-7.024-10.818-7.516-21.284,3.582-28.941-9.764,10.26-7.442,19.387-3.582,28.941ZM103.782,63.333c1.124,15.735,20.02,26.833,11.1,43.622C112.845,93.819,96.548,84.266,103.782,63.333Zm9.553-19.106c-1.756,1.686-4.074.07-8.289,2.74-.913-6.252,6.533-5.967,8.289-2.74Zm13.346,8.71c1.054.421,6.322,6.673,7.1,8.008-2.459-2.107-4.5-3.934-7.235-5.971l-2.107.913.421-1.264-4.425-1.264,3.653-1.335c1.756-.632,1.194-1.4.351-2.318,1.475.421,2.74,1.194,2.248,3.231ZM126.05,102.6a10.812,10.812,0,0,0-.07-6.673c2.178-3.934,3.161-9.834,1.264-13.979C135.322,87.778,137.289,98.877,126.05,102.6Z" transform="translate(239.911 235.383)" fill="#747474"/>
          </g>
          <g id="Group_13" data-name="Group 13" transform="translate(-318.627 45.305)">
            <path id="Path_12-13" data-name="Path 12" d="M141.925,66.634a8.7,8.7,0,0,0,1.826-.7c.07,1.124.281,4.215-1.9,5.83-.281-.211-.632-.351-.843-.492l.913-4.636ZM105.679,52.8a15.847,15.847,0,0,1,4.425-3.3c-15.243,20.582,14.611,33.717,8.359,51.349,4.987-2.74,7.586-7.024,7.727-11.59.421-12.082-18.193-15.313-8.219-33.085-3.793,11.942-.351,16.156,8.219,22.478-1.545-3.723.632-9.132,5.2-11.942l-6.884-2.88,9.483,2.388c-4.285,2.178-8.359,9.413-4.847,13.346,2.318,2.6,6.884.913,8.851,5.83,2.74-1.616,2.88-3.582,3.091-6.182a5.936,5.936,0,0,1,.632,3.582c2.88-2.74,2.529-8.5-1.475-10.326a21.86,21.86,0,0,0-4.5,1.9c-2.318,1.194-1.264,2.6-4.215,2.388,0,0-1.124-1.054,2.88-3.161a31.737,31.737,0,0,1,5.339-2.318l.913-4.566a7.162,7.162,0,0,0-1.686-1.756c-.843-.7-2.178-1.4-3.091-2.107-.351-.281-.843-.351-.913-.632.7-1.475,4.5-.983,5.971-.843a8.939,8.939,0,0,1,2.529-.211c-2.88-2.669-10.256-8.078-13.7-10.747a21.285,21.285,0,0,0-2.6-4.847,10.117,10.117,0,0,1,3.512,4.285l1.967,1.264c1.194-6.884-1.335-18.4-13.908-17.35a10.717,10.717,0,0,1,3.372,6.252c-13.417-18.826-41.3-3.723-39.9,13.206.913-1.826,6.533-7.446,11.52-8.078C82.919,51.672,72.453,67.056,83.271,79.77c-3.231-10.747,3.3-22.338,11.169-26.693-23.11,25.148.07,37.3,8.64,51.559,8.5-16.3-22.548-18.966-10.818-43.2-4.074,15.735,4.355,23.251,12.293,28.519-7.305-11.028-6.462-23.672-.14-35.122-4.987,4.285-9.343,10.607-8.57,20.933-2.529-8.781.562-16.648,7.024-22.408-4.355-5.058-3.582-13.487,3.091-15.032a8.337,8.337,0,0,1,9.132,4.987c-6.673-9.062-19.317.211-9.413,9.483ZM89.593,42.681c6.111-9.272,20.511-11.59,27.957-3.512C108.067,32.987,96.9,36.008,89.593,42.681Zm24.867,32.8c-7.024-10.818-7.516-21.284,3.582-28.941-9.764,10.26-7.442,19.387-3.582,28.941ZM103.782,63.333c1.124,15.735,20.02,26.833,11.1,43.622C112.845,93.819,96.548,84.266,103.782,63.333Zm9.553-19.106c-1.756,1.686-4.074.07-8.289,2.74-.913-6.252,6.533-5.967,8.289-2.74Zm13.346,8.71c1.054.421,6.322,6.673,7.1,8.008-2.459-2.107-4.5-3.934-7.235-5.971l-2.107.913.421-1.264-4.425-1.264,3.653-1.335c1.756-.632,1.194-1.4.351-2.318,1.475.421,2.74,1.194,2.248,3.231ZM126.05,102.6a10.812,10.812,0,0,0-.07-6.673c2.178-3.934,3.161-9.834,1.264-13.979C135.322,87.778,137.289,98.877,126.05,102.6Z" transform="translate(239.911 235.383)" fill="#747474"/>
          </g>
          <g id="Group_14" data-name="Group 14" transform="translate(-172.627 45.305)">
            <path id="Path_12-14" data-name="Path 12" d="M141.925,66.634a8.7,8.7,0,0,0,1.826-.7c.07,1.124.281,4.215-1.9,5.83-.281-.211-.632-.351-.843-.492l.913-4.636ZM105.679,52.8a15.847,15.847,0,0,1,4.425-3.3c-15.243,20.582,14.611,33.717,8.359,51.349,4.987-2.74,7.586-7.024,7.727-11.59.421-12.082-18.193-15.313-8.219-33.085-3.793,11.942-.351,16.156,8.219,22.478-1.545-3.723.632-9.132,5.2-11.942l-6.884-2.88,9.483,2.388c-4.285,2.178-8.359,9.413-4.847,13.346,2.318,2.6,6.884.913,8.851,5.83,2.74-1.616,2.88-3.582,3.091-6.182a5.936,5.936,0,0,1,.632,3.582c2.88-2.74,2.529-8.5-1.475-10.326a21.86,21.86,0,0,0-4.5,1.9c-2.318,1.194-1.264,2.6-4.215,2.388,0,0-1.124-1.054,2.88-3.161a31.737,31.737,0,0,1,5.339-2.318l.913-4.566a7.162,7.162,0,0,0-1.686-1.756c-.843-.7-2.178-1.4-3.091-2.107-.351-.281-.843-.351-.913-.632.7-1.475,4.5-.983,5.971-.843a8.939,8.939,0,0,1,2.529-.211c-2.88-2.669-10.256-8.078-13.7-10.747a21.285,21.285,0,0,0-2.6-4.847,10.117,10.117,0,0,1,3.512,4.285l1.967,1.264c1.194-6.884-1.335-18.4-13.908-17.35a10.717,10.717,0,0,1,3.372,6.252c-13.417-18.826-41.3-3.723-39.9,13.206.913-1.826,6.533-7.446,11.52-8.078C82.919,51.672,72.453,67.056,83.271,79.77c-3.231-10.747,3.3-22.338,11.169-26.693-23.11,25.148.07,37.3,8.64,51.559,8.5-16.3-22.548-18.966-10.818-43.2-4.074,15.735,4.355,23.251,12.293,28.519-7.305-11.028-6.462-23.672-.14-35.122-4.987,4.285-9.343,10.607-8.57,20.933-2.529-8.781.562-16.648,7.024-22.408-4.355-5.058-3.582-13.487,3.091-15.032a8.337,8.337,0,0,1,9.132,4.987c-6.673-9.062-19.317.211-9.413,9.483ZM89.593,42.681c6.111-9.272,20.511-11.59,27.957-3.512C108.067,32.987,96.9,36.008,89.593,42.681Zm24.867,32.8c-7.024-10.818-7.516-21.284,3.582-28.941-9.764,10.26-7.442,19.387-3.582,28.941ZM103.782,63.333c1.124,15.735,20.02,26.833,11.1,43.622C112.845,93.819,96.548,84.266,103.782,63.333Zm9.553-19.106c-1.756,1.686-4.074.07-8.289,2.74-.913-6.252,6.533-5.967,8.289-2.74Zm13.346,8.71c1.054.421,6.322,6.673,7.1,8.008-2.459-2.107-4.5-3.934-7.235-5.971l-2.107.913.421-1.264-4.425-1.264,3.653-1.335c1.756-.632,1.194-1.4.351-2.318,1.475.421,2.74,1.194,2.248,3.231ZM126.05,102.6a10.812,10.812,0,0,0-.07-6.673c2.178-3.934,3.161-9.834,1.264-13.979C135.322,87.778,137.289,98.877,126.05,102.6Z" transform="translate(239.911 235.383)" fill="#747474"/>
          </g>
          <g id="Group_15" data-name="Group 15" transform="translate(-26.627 45.305)">
            <path id="Path_12-15" data-name="Path 12" d="M141.925,66.634a8.7,8.7,0,0,0,1.826-.7c.07,1.124.281,4.215-1.9,5.83-.281-.211-.632-.351-.843-.492l.913-4.636ZM105.679,52.8a15.847,15.847,0,0,1,4.425-3.3c-15.243,20.582,14.611,33.717,8.359,51.349,4.987-2.74,7.586-7.024,7.727-11.59.421-12.082-18.193-15.313-8.219-33.085-3.793,11.942-.351,16.156,8.219,22.478-1.545-3.723.632-9.132,5.2-11.942l-6.884-2.88,9.483,2.388c-4.285,2.178-8.359,9.413-4.847,13.346,2.318,2.6,6.884.913,8.851,5.83,2.74-1.616,2.88-3.582,3.091-6.182a5.936,5.936,0,0,1,.632,3.582c2.88-2.74,2.529-8.5-1.475-10.326a21.86,21.86,0,0,0-4.5,1.9c-2.318,1.194-1.264,2.6-4.215,2.388,0,0-1.124-1.054,2.88-3.161a31.737,31.737,0,0,1,5.339-2.318l.913-4.566a7.162,7.162,0,0,0-1.686-1.756c-.843-.7-2.178-1.4-3.091-2.107-.351-.281-.843-.351-.913-.632.7-1.475,4.5-.983,5.971-.843a8.939,8.939,0,0,1,2.529-.211c-2.88-2.669-10.256-8.078-13.7-10.747a21.285,21.285,0,0,0-2.6-4.847,10.117,10.117,0,0,1,3.512,4.285l1.967,1.264c1.194-6.884-1.335-18.4-13.908-17.35a10.717,10.717,0,0,1,3.372,6.252c-13.417-18.826-41.3-3.723-39.9,13.206.913-1.826,6.533-7.446,11.52-8.078C82.919,51.672,72.453,67.056,83.271,79.77c-3.231-10.747,3.3-22.338,11.169-26.693-23.11,25.148.07,37.3,8.64,51.559,8.5-16.3-22.548-18.966-10.818-43.2-4.074,15.735,4.355,23.251,12.293,28.519-7.305-11.028-6.462-23.672-.14-35.122-4.987,4.285-9.343,10.607-8.57,20.933-2.529-8.781.562-16.648,7.024-22.408-4.355-5.058-3.582-13.487,3.091-15.032a8.337,8.337,0,0,1,9.132,4.987c-6.673-9.062-19.317.211-9.413,9.483ZM89.593,42.681c6.111-9.272,20.511-11.59,27.957-3.512C108.067,32.987,96.9,36.008,89.593,42.681Zm24.867,32.8c-7.024-10.818-7.516-21.284,3.582-28.941-9.764,10.26-7.442,19.387-3.582,28.941ZM103.782,63.333c1.124,15.735,20.02,26.833,11.1,43.622C112.845,93.819,96.548,84.266,103.782,63.333Zm9.553-19.106c-1.756,1.686-4.074.07-8.289,2.74-.913-6.252,6.533-5.967,8.289-2.74Zm13.346,8.71c1.054.421,6.322,6.673,7.1,8.008-2.459-2.107-4.5-3.934-7.235-5.971l-2.107.913.421-1.264-4.425-1.264,3.653-1.335c1.756-.632,1.194-1.4.351-2.318,1.475.421,2.74,1.194,2.248,3.231ZM126.05,102.6a10.812,10.812,0,0,0-.07-6.673c2.178-3.934,3.161-9.834,1.264-13.979C135.322,87.778,137.289,98.877,126.05,102.6Z" transform="translate(239.911 235.383)" fill="#747474"/>
          </g>
          <g id="Group_16" data-name="Group 16" transform="translate(119.373 45.305)">
            <path id="Path_12-16" data-name="Path 12" d="M141.925,66.634a8.7,8.7,0,0,0,1.826-.7c.07,1.124.281,4.215-1.9,5.83-.281-.211-.632-.351-.843-.492l.913-4.636ZM105.679,52.8a15.847,15.847,0,0,1,4.425-3.3c-15.243,20.582,14.611,33.717,8.359,51.349,4.987-2.74,7.586-7.024,7.727-11.59.421-12.082-18.193-15.313-8.219-33.085-3.793,11.942-.351,16.156,8.219,22.478-1.545-3.723.632-9.132,5.2-11.942l-6.884-2.88,9.483,2.388c-4.285,2.178-8.359,9.413-4.847,13.346,2.318,2.6,6.884.913,8.851,5.83,2.74-1.616,2.88-3.582,3.091-6.182a5.936,5.936,0,0,1,.632,3.582c2.88-2.74,2.529-8.5-1.475-10.326a21.86,21.86,0,0,0-4.5,1.9c-2.318,1.194-1.264,2.6-4.215,2.388,0,0-1.124-1.054,2.88-3.161a31.737,31.737,0,0,1,5.339-2.318l.913-4.566a7.162,7.162,0,0,0-1.686-1.756c-.843-.7-2.178-1.4-3.091-2.107-.351-.281-.843-.351-.913-.632.7-1.475,4.5-.983,5.971-.843a8.939,8.939,0,0,1,2.529-.211c-2.88-2.669-10.256-8.078-13.7-10.747a21.285,21.285,0,0,0-2.6-4.847,10.117,10.117,0,0,1,3.512,4.285l1.967,1.264c1.194-6.884-1.335-18.4-13.908-17.35a10.717,10.717,0,0,1,3.372,6.252c-13.417-18.826-41.3-3.723-39.9,13.206.913-1.826,6.533-7.446,11.52-8.078C82.919,51.672,72.453,67.056,83.271,79.77c-3.231-10.747,3.3-22.338,11.169-26.693-23.11,25.148.07,37.3,8.64,51.559,8.5-16.3-22.548-18.966-10.818-43.2-4.074,15.735,4.355,23.251,12.293,28.519-7.305-11.028-6.462-23.672-.14-35.122-4.987,4.285-9.343,10.607-8.57,20.933-2.529-8.781.562-16.648,7.024-22.408-4.355-5.058-3.582-13.487,3.091-15.032a8.337,8.337,0,0,1,9.132,4.987c-6.673-9.062-19.317.211-9.413,9.483ZM89.593,42.681c6.111-9.272,20.511-11.59,27.957-3.512C108.067,32.987,96.9,36.008,89.593,42.681Zm24.867,32.8c-7.024-10.818-7.516-21.284,3.582-28.941-9.764,10.26-7.442,19.387-3.582,28.941ZM103.782,63.333c1.124,15.735,20.02,26.833,11.1,43.622C112.845,93.819,96.548,84.266,103.782,63.333Zm9.553-19.106c-1.756,1.686-4.074.07-8.289,2.74-.913-6.252,6.533-5.967,8.289-2.74Zm13.346,8.71c1.054.421,6.322,6.673,7.1,8.008-2.459-2.107-4.5-3.934-7.235-5.971l-2.107.913.421-1.264-4.425-1.264,3.653-1.335c1.756-.632,1.194-1.4.351-2.318,1.475.421,2.74,1.194,2.248,3.231ZM126.05,102.6a10.812,10.812,0,0,0-.07-6.673c2.178-3.934,3.161-9.834,1.264-13.979C135.322,87.778,137.289,98.877,126.05,102.6Z" transform="translate(239.911 235.383)" fill="#747474"/>
          </g>
          <g id="Group_17" data-name="Group 17" transform="translate(265.373 45.305)">
            <path id="Path_12-17" data-name="Path 12" d="M141.925,66.634a8.7,8.7,0,0,0,1.826-.7c.07,1.124.281,4.215-1.9,5.83-.281-.211-.632-.351-.843-.492l.913-4.636ZM105.679,52.8a15.847,15.847,0,0,1,4.425-3.3c-15.243,20.582,14.611,33.717,8.359,51.349,4.987-2.74,7.586-7.024,7.727-11.59.421-12.082-18.193-15.313-8.219-33.085-3.793,11.942-.351,16.156,8.219,22.478-1.545-3.723.632-9.132,5.2-11.942l-6.884-2.88,9.483,2.388c-4.285,2.178-8.359,9.413-4.847,13.346,2.318,2.6,6.884.913,8.851,5.83,2.74-1.616,2.88-3.582,3.091-6.182a5.936,5.936,0,0,1,.632,3.582c2.88-2.74,2.529-8.5-1.475-10.326a21.86,21.86,0,0,0-4.5,1.9c-2.318,1.194-1.264,2.6-4.215,2.388,0,0-1.124-1.054,2.88-3.161a31.737,31.737,0,0,1,5.339-2.318l.913-4.566a7.162,7.162,0,0,0-1.686-1.756c-.843-.7-2.178-1.4-3.091-2.107-.351-.281-.843-.351-.913-.632.7-1.475,4.5-.983,5.971-.843a8.939,8.939,0,0,1,2.529-.211c-2.88-2.669-10.256-8.078-13.7-10.747a21.285,21.285,0,0,0-2.6-4.847,10.117,10.117,0,0,1,3.512,4.285l1.967,1.264c1.194-6.884-1.335-18.4-13.908-17.35a10.717,10.717,0,0,1,3.372,6.252c-13.417-18.826-41.3-3.723-39.9,13.206.913-1.826,6.533-7.446,11.52-8.078C82.919,51.672,72.453,67.056,83.271,79.77c-3.231-10.747,3.3-22.338,11.169-26.693-23.11,25.148.07,37.3,8.64,51.559,8.5-16.3-22.548-18.966-10.818-43.2-4.074,15.735,4.355,23.251,12.293,28.519-7.305-11.028-6.462-23.672-.14-35.122-4.987,4.285-9.343,10.607-8.57,20.933-2.529-8.781.562-16.648,7.024-22.408-4.355-5.058-3.582-13.487,3.091-15.032a8.337,8.337,0,0,1,9.132,4.987c-6.673-9.062-19.317.211-9.413,9.483ZM89.593,42.681c6.111-9.272,20.511-11.59,27.957-3.512C108.067,32.987,96.9,36.008,89.593,42.681Zm24.867,32.8c-7.024-10.818-7.516-21.284,3.582-28.941-9.764,10.26-7.442,19.387-3.582,28.941ZM103.782,63.333c1.124,15.735,20.02,26.833,11.1,43.622C112.845,93.819,96.548,84.266,103.782,63.333Zm9.553-19.106c-1.756,1.686-4.074.07-8.289,2.74-.913-6.252,6.533-5.967,8.289-2.74Zm13.346,8.71c1.054.421,6.322,6.673,7.1,8.008-2.459-2.107-4.5-3.934-7.235-5.971l-2.107.913.421-1.264-4.425-1.264,3.653-1.335c1.756-.632,1.194-1.4.351-2.318,1.475.421,2.74,1.194,2.248,3.231ZM126.05,102.6a10.812,10.812,0,0,0-.07-6.673c2.178-3.934,3.161-9.834,1.264-13.979C135.322,87.778,137.289,98.877,126.05,102.6Z" transform="translate(239.911 235.383)" fill="#747474"/>
          </g>
          <g id="Group_18" data-name="Group 18" transform="translate(411.373 45.305)">
            <path id="Path_12-18" data-name="Path 12" d="M141.925,66.634a8.7,8.7,0,0,0,1.826-.7c.07,1.124.281,4.215-1.9,5.83-.281-.211-.632-.351-.843-.492l.913-4.636ZM105.679,52.8a15.847,15.847,0,0,1,4.425-3.3c-15.243,20.582,14.611,33.717,8.359,51.349,4.987-2.74,7.586-7.024,7.727-11.59.421-12.082-18.193-15.313-8.219-33.085-3.793,11.942-.351,16.156,8.219,22.478-1.545-3.723.632-9.132,5.2-11.942l-6.884-2.88,9.483,2.388c-4.285,2.178-8.359,9.413-4.847,13.346,2.318,2.6,6.884.913,8.851,5.83,2.74-1.616,2.88-3.582,3.091-6.182a5.936,5.936,0,0,1,.632,3.582c2.88-2.74,2.529-8.5-1.475-10.326a21.86,21.86,0,0,0-4.5,1.9c-2.318,1.194-1.264,2.6-4.215,2.388,0,0-1.124-1.054,2.88-3.161a31.737,31.737,0,0,1,5.339-2.318l.913-4.566a7.162,7.162,0,0,0-1.686-1.756c-.843-.7-2.178-1.4-3.091-2.107-.351-.281-.843-.351-.913-.632.7-1.475,4.5-.983,5.971-.843a8.939,8.939,0,0,1,2.529-.211c-2.88-2.669-10.256-8.078-13.7-10.747a21.285,21.285,0,0,0-2.6-4.847,10.117,10.117,0,0,1,3.512,4.285l1.967,1.264c1.194-6.884-1.335-18.4-13.908-17.35a10.717,10.717,0,0,1,3.372,6.252c-13.417-18.826-41.3-3.723-39.9,13.206.913-1.826,6.533-7.446,11.52-8.078C82.919,51.672,72.453,67.056,83.271,79.77c-3.231-10.747,3.3-22.338,11.169-26.693-23.11,25.148.07,37.3,8.64,51.559,8.5-16.3-22.548-18.966-10.818-43.2-4.074,15.735,4.355,23.251,12.293,28.519-7.305-11.028-6.462-23.672-.14-35.122-4.987,4.285-9.343,10.607-8.57,20.933-2.529-8.781.562-16.648,7.024-22.408-4.355-5.058-3.582-13.487,3.091-15.032a8.337,8.337,0,0,1,9.132,4.987c-6.673-9.062-19.317.211-9.413,9.483ZM89.593,42.681c6.111-9.272,20.511-11.59,27.957-3.512C108.067,32.987,96.9,36.008,89.593,42.681Zm24.867,32.8c-7.024-10.818-7.516-21.284,3.582-28.941-9.764,10.26-7.442,19.387-3.582,28.941ZM103.782,63.333c1.124,15.735,20.02,26.833,11.1,43.622C112.845,93.819,96.548,84.266,103.782,63.333Zm9.553-19.106c-1.756,1.686-4.074.07-8.289,2.74-.913-6.252,6.533-5.967,8.289-2.74Zm13.346,8.71c1.054.421,6.322,6.673,7.1,8.008-2.459-2.107-4.5-3.934-7.235-5.971l-2.107.913.421-1.264-4.425-1.264,3.653-1.335c1.756-.632,1.194-1.4.351-2.318,1.475.421,2.74,1.194,2.248,3.231ZM126.05,102.6a10.812,10.812,0,0,0-.07-6.673c2.178-3.934,3.161-9.834,1.264-13.979C135.322,87.778,137.289,98.877,126.05,102.6Z" transform="translate(239.911 235.383)" fill="#747474"/>
          </g>
        </g>
      </g>
    </g>
    <g id="Repeat_Grid_1" data-name="Repeat Grid 1" transform="translate(655.373 418.305)" clip-path="url(#clip-path-3)">
      <g transform="translate(-655.373 -418.305)">
        <g id="Repeat_Grid_1-2" data-name="Repeat Grid 1" transform="translate(655.373 418.305)" clip-path="url(#clip-path-4)">
          <g id="Group_19" data-name="Group 19" transform="translate(-318.627 -266.695)">
            <path id="Path_12-19" data-name="Path 12" d="M141.925,66.634a8.7,8.7,0,0,0,1.826-.7c.07,1.124.281,4.215-1.9,5.83-.281-.211-.632-.351-.843-.492l.913-4.636ZM105.679,52.8a15.847,15.847,0,0,1,4.425-3.3c-15.243,20.582,14.611,33.717,8.359,51.349,4.987-2.74,7.586-7.024,7.727-11.59.421-12.082-18.193-15.313-8.219-33.085-3.793,11.942-.351,16.156,8.219,22.478-1.545-3.723.632-9.132,5.2-11.942l-6.884-2.88,9.483,2.388c-4.285,2.178-8.359,9.413-4.847,13.346,2.318,2.6,6.884.913,8.851,5.83,2.74-1.616,2.88-3.582,3.091-6.182a5.936,5.936,0,0,1,.632,3.582c2.88-2.74,2.529-8.5-1.475-10.326a21.86,21.86,0,0,0-4.5,1.9c-2.318,1.194-1.264,2.6-4.215,2.388,0,0-1.124-1.054,2.88-3.161a31.737,31.737,0,0,1,5.339-2.318l.913-4.566a7.162,7.162,0,0,0-1.686-1.756c-.843-.7-2.178-1.4-3.091-2.107-.351-.281-.843-.351-.913-.632.7-1.475,4.5-.983,5.971-.843a8.939,8.939,0,0,1,2.529-.211c-2.88-2.669-10.256-8.078-13.7-10.747a21.285,21.285,0,0,0-2.6-4.847,10.117,10.117,0,0,1,3.512,4.285l1.967,1.264c1.194-6.884-1.335-18.4-13.908-17.35a10.717,10.717,0,0,1,3.372,6.252c-13.417-18.826-41.3-3.723-39.9,13.206.913-1.826,6.533-7.446,11.52-8.078C82.919,51.672,72.453,67.056,83.271,79.77c-3.231-10.747,3.3-22.338,11.169-26.693-23.11,25.148.07,37.3,8.64,51.559,8.5-16.3-22.548-18.966-10.818-43.2-4.074,15.735,4.355,23.251,12.293,28.519-7.305-11.028-6.462-23.672-.14-35.122-4.987,4.285-9.343,10.607-8.57,20.933-2.529-8.781.562-16.648,7.024-22.408-4.355-5.058-3.582-13.487,3.091-15.032a8.337,8.337,0,0,1,9.132,4.987c-6.673-9.062-19.317.211-9.413,9.483ZM89.593,42.681c6.111-9.272,20.511-11.59,27.957-3.512C108.067,32.987,96.9,36.008,89.593,42.681Zm24.867,32.8c-7.024-10.818-7.516-21.284,3.582-28.941-9.764,10.26-7.442,19.387-3.582,28.941ZM103.782,63.333c1.124,15.735,20.02,26.833,11.1,43.622C112.845,93.819,96.548,84.266,103.782,63.333Zm9.553-19.106c-1.756,1.686-4.074.07-8.289,2.74-.913-6.252,6.533-5.967,8.289-2.74Zm13.346,8.71c1.054.421,6.322,6.673,7.1,8.008-2.459-2.107-4.5-3.934-7.235-5.971l-2.107.913.421-1.264-4.425-1.264,3.653-1.335c1.756-.632,1.194-1.4.351-2.318,1.475.421,2.74,1.194,2.248,3.231ZM126.05,102.6a10.812,10.812,0,0,0-.07-6.673c2.178-3.934,3.161-9.834,1.264-13.979C135.322,87.778,137.289,98.877,126.05,102.6Z" transform="translate(239.911 235.383)" fill="#747474"/>
          </g>
          <g id="Group_20" data-name="Group 20" transform="translate(-172.627 -266.695)">
            <path id="Path_12-20" data-name="Path 12" d="M141.925,66.634a8.7,8.7,0,0,0,1.826-.7c.07,1.124.281,4.215-1.9,5.83-.281-.211-.632-.351-.843-.492l.913-4.636ZM105.679,52.8a15.847,15.847,0,0,1,4.425-3.3c-15.243,20.582,14.611,33.717,8.359,51.349,4.987-2.74,7.586-7.024,7.727-11.59.421-12.082-18.193-15.313-8.219-33.085-3.793,11.942-.351,16.156,8.219,22.478-1.545-3.723.632-9.132,5.2-11.942l-6.884-2.88,9.483,2.388c-4.285,2.178-8.359,9.413-4.847,13.346,2.318,2.6,6.884.913,8.851,5.83,2.74-1.616,2.88-3.582,3.091-6.182a5.936,5.936,0,0,1,.632,3.582c2.88-2.74,2.529-8.5-1.475-10.326a21.86,21.86,0,0,0-4.5,1.9c-2.318,1.194-1.264,2.6-4.215,2.388,0,0-1.124-1.054,2.88-3.161a31.737,31.737,0,0,1,5.339-2.318l.913-4.566a7.162,7.162,0,0,0-1.686-1.756c-.843-.7-2.178-1.4-3.091-2.107-.351-.281-.843-.351-.913-.632.7-1.475,4.5-.983,5.971-.843a8.939,8.939,0,0,1,2.529-.211c-2.88-2.669-10.256-8.078-13.7-10.747a21.285,21.285,0,0,0-2.6-4.847,10.117,10.117,0,0,1,3.512,4.285l1.967,1.264c1.194-6.884-1.335-18.4-13.908-17.35a10.717,10.717,0,0,1,3.372,6.252c-13.417-18.826-41.3-3.723-39.9,13.206.913-1.826,6.533-7.446,11.52-8.078C82.919,51.672,72.453,67.056,83.271,79.77c-3.231-10.747,3.3-22.338,11.169-26.693-23.11,25.148.07,37.3,8.64,51.559,8.5-16.3-22.548-18.966-10.818-43.2-4.074,15.735,4.355,23.251,12.293,28.519-7.305-11.028-6.462-23.672-.14-35.122-4.987,4.285-9.343,10.607-8.57,20.933-2.529-8.781.562-16.648,7.024-22.408-4.355-5.058-3.582-13.487,3.091-15.032a8.337,8.337,0,0,1,9.132,4.987c-6.673-9.062-19.317.211-9.413,9.483ZM89.593,42.681c6.111-9.272,20.511-11.59,27.957-3.512C108.067,32.987,96.9,36.008,89.593,42.681Zm24.867,32.8c-7.024-10.818-7.516-21.284,3.582-28.941-9.764,10.26-7.442,19.387-3.582,28.941ZM103.782,63.333c1.124,15.735,20.02,26.833,11.1,43.622C112.845,93.819,96.548,84.266,103.782,63.333Zm9.553-19.106c-1.756,1.686-4.074.07-8.289,2.74-.913-6.252,6.533-5.967,8.289-2.74Zm13.346,8.71c1.054.421,6.322,6.673,7.1,8.008-2.459-2.107-4.5-3.934-7.235-5.971l-2.107.913.421-1.264-4.425-1.264,3.653-1.335c1.756-.632,1.194-1.4.351-2.318,1.475.421,2.74,1.194,2.248,3.231ZM126.05,102.6a10.812,10.812,0,0,0-.07-6.673c2.178-3.934,3.161-9.834,1.264-13.979C135.322,87.778,137.289,98.877,126.05,102.6Z" transform="translate(239.911 235.383)" fill="#747474"/>
          </g>
          <g id="Group_21" data-name="Group 21" transform="translate(-26.627 -266.695)">
            <path id="Path_12-21" data-name="Path 12" d="M141.925,66.634a8.7,8.7,0,0,0,1.826-.7c.07,1.124.281,4.215-1.9,5.83-.281-.211-.632-.351-.843-.492l.913-4.636ZM105.679,52.8a15.847,15.847,0,0,1,4.425-3.3c-15.243,20.582,14.611,33.717,8.359,51.349,4.987-2.74,7.586-7.024,7.727-11.59.421-12.082-18.193-15.313-8.219-33.085-3.793,11.942-.351,16.156,8.219,22.478-1.545-3.723.632-9.132,5.2-11.942l-6.884-2.88,9.483,2.388c-4.285,2.178-8.359,9.413-4.847,13.346,2.318,2.6,6.884.913,8.851,5.83,2.74-1.616,2.88-3.582,3.091-6.182a5.936,5.936,0,0,1,.632,3.582c2.88-2.74,2.529-8.5-1.475-10.326a21.86,21.86,0,0,0-4.5,1.9c-2.318,1.194-1.264,2.6-4.215,2.388,0,0-1.124-1.054,2.88-3.161a31.737,31.737,0,0,1,5.339-2.318l.913-4.566a7.162,7.162,0,0,0-1.686-1.756c-.843-.7-2.178-1.4-3.091-2.107-.351-.281-.843-.351-.913-.632.7-1.475,4.5-.983,5.971-.843a8.939,8.939,0,0,1,2.529-.211c-2.88-2.669-10.256-8.078-13.7-10.747a21.285,21.285,0,0,0-2.6-4.847,10.117,10.117,0,0,1,3.512,4.285l1.967,1.264c1.194-6.884-1.335-18.4-13.908-17.35a10.717,10.717,0,0,1,3.372,6.252c-13.417-18.826-41.3-3.723-39.9,13.206.913-1.826,6.533-7.446,11.52-8.078C82.919,51.672,72.453,67.056,83.271,79.77c-3.231-10.747,3.3-22.338,11.169-26.693-23.11,25.148.07,37.3,8.64,51.559,8.5-16.3-22.548-18.966-10.818-43.2-4.074,15.735,4.355,23.251,12.293,28.519-7.305-11.028-6.462-23.672-.14-35.122-4.987,4.285-9.343,10.607-8.57,20.933-2.529-8.781.562-16.648,7.024-22.408-4.355-5.058-3.582-13.487,3.091-15.032a8.337,8.337,0,0,1,9.132,4.987c-6.673-9.062-19.317.211-9.413,9.483ZM89.593,42.681c6.111-9.272,20.511-11.59,27.957-3.512C108.067,32.987,96.9,36.008,89.593,42.681Zm24.867,32.8c-7.024-10.818-7.516-21.284,3.582-28.941-9.764,10.26-7.442,19.387-3.582,28.941ZM103.782,63.333c1.124,15.735,20.02,26.833,11.1,43.622C112.845,93.819,96.548,84.266,103.782,63.333Zm9.553-19.106c-1.756,1.686-4.074.07-8.289,2.74-.913-6.252,6.533-5.967,8.289-2.74Zm13.346,8.71c1.054.421,6.322,6.673,7.1,8.008-2.459-2.107-4.5-3.934-7.235-5.971l-2.107.913.421-1.264-4.425-1.264,3.653-1.335c1.756-.632,1.194-1.4.351-2.318,1.475.421,2.74,1.194,2.248,3.231ZM126.05,102.6a10.812,10.812,0,0,0-.07-6.673c2.178-3.934,3.161-9.834,1.264-13.979C135.322,87.778,137.289,98.877,126.05,102.6Z" transform="translate(239.911 235.383)" fill="#747474"/>
          </g>
          <g id="Group_22" data-name="Group 22" transform="translate(119.373 -266.695)">
            <path id="Path_12-22" data-name="Path 12" d="M141.925,66.634a8.7,8.7,0,0,0,1.826-.7c.07,1.124.281,4.215-1.9,5.83-.281-.211-.632-.351-.843-.492l.913-4.636ZM105.679,52.8a15.847,15.847,0,0,1,4.425-3.3c-15.243,20.582,14.611,33.717,8.359,51.349,4.987-2.74,7.586-7.024,7.727-11.59.421-12.082-18.193-15.313-8.219-33.085-3.793,11.942-.351,16.156,8.219,22.478-1.545-3.723.632-9.132,5.2-11.942l-6.884-2.88,9.483,2.388c-4.285,2.178-8.359,9.413-4.847,13.346,2.318,2.6,6.884.913,8.851,5.83,2.74-1.616,2.88-3.582,3.091-6.182a5.936,5.936,0,0,1,.632,3.582c2.88-2.74,2.529-8.5-1.475-10.326a21.86,21.86,0,0,0-4.5,1.9c-2.318,1.194-1.264,2.6-4.215,2.388,0,0-1.124-1.054,2.88-3.161a31.737,31.737,0,0,1,5.339-2.318l.913-4.566a7.162,7.162,0,0,0-1.686-1.756c-.843-.7-2.178-1.4-3.091-2.107-.351-.281-.843-.351-.913-.632.7-1.475,4.5-.983,5.971-.843a8.939,8.939,0,0,1,2.529-.211c-2.88-2.669-10.256-8.078-13.7-10.747a21.285,21.285,0,0,0-2.6-4.847,10.117,10.117,0,0,1,3.512,4.285l1.967,1.264c1.194-6.884-1.335-18.4-13.908-17.35a10.717,10.717,0,0,1,3.372,6.252c-13.417-18.826-41.3-3.723-39.9,13.206.913-1.826,6.533-7.446,11.52-8.078C82.919,51.672,72.453,67.056,83.271,79.77c-3.231-10.747,3.3-22.338,11.169-26.693-23.11,25.148.07,37.3,8.64,51.559,8.5-16.3-22.548-18.966-10.818-43.2-4.074,15.735,4.355,23.251,12.293,28.519-7.305-11.028-6.462-23.672-.14-35.122-4.987,4.285-9.343,10.607-8.57,20.933-2.529-8.781.562-16.648,7.024-22.408-4.355-5.058-3.582-13.487,3.091-15.032a8.337,8.337,0,0,1,9.132,4.987c-6.673-9.062-19.317.211-9.413,9.483ZM89.593,42.681c6.111-9.272,20.511-11.59,27.957-3.512C108.067,32.987,96.9,36.008,89.593,42.681Zm24.867,32.8c-7.024-10.818-7.516-21.284,3.582-28.941-9.764,10.26-7.442,19.387-3.582,28.941ZM103.782,63.333c1.124,15.735,20.02,26.833,11.1,43.622C112.845,93.819,96.548,84.266,103.782,63.333Zm9.553-19.106c-1.756,1.686-4.074.07-8.289,2.74-.913-6.252,6.533-5.967,8.289-2.74Zm13.346,8.71c1.054.421,6.322,6.673,7.1,8.008-2.459-2.107-4.5-3.934-7.235-5.971l-2.107.913.421-1.264-4.425-1.264,3.653-1.335c1.756-.632,1.194-1.4.351-2.318,1.475.421,2.74,1.194,2.248,3.231ZM126.05,102.6a10.812,10.812,0,0,0-.07-6.673c2.178-3.934,3.161-9.834,1.264-13.979C135.322,87.778,137.289,98.877,126.05,102.6Z" transform="translate(239.911 235.383)" fill="#747474"/>
          </g>
          <g id="Group_23" data-name="Group 23" transform="translate(265.373 -266.695)">
            <path id="Path_12-23" data-name="Path 12" d="M141.925,66.634a8.7,8.7,0,0,0,1.826-.7c.07,1.124.281,4.215-1.9,5.83-.281-.211-.632-.351-.843-.492l.913-4.636ZM105.679,52.8a15.847,15.847,0,0,1,4.425-3.3c-15.243,20.582,14.611,33.717,8.359,51.349,4.987-2.74,7.586-7.024,7.727-11.59.421-12.082-18.193-15.313-8.219-33.085-3.793,11.942-.351,16.156,8.219,22.478-1.545-3.723.632-9.132,5.2-11.942l-6.884-2.88,9.483,2.388c-4.285,2.178-8.359,9.413-4.847,13.346,2.318,2.6,6.884.913,8.851,5.83,2.74-1.616,2.88-3.582,3.091-6.182a5.936,5.936,0,0,1,.632,3.582c2.88-2.74,2.529-8.5-1.475-10.326a21.86,21.86,0,0,0-4.5,1.9c-2.318,1.194-1.264,2.6-4.215,2.388,0,0-1.124-1.054,2.88-3.161a31.737,31.737,0,0,1,5.339-2.318l.913-4.566a7.162,7.162,0,0,0-1.686-1.756c-.843-.7-2.178-1.4-3.091-2.107-.351-.281-.843-.351-.913-.632.7-1.475,4.5-.983,5.971-.843a8.939,8.939,0,0,1,2.529-.211c-2.88-2.669-10.256-8.078-13.7-10.747a21.285,21.285,0,0,0-2.6-4.847,10.117,10.117,0,0,1,3.512,4.285l1.967,1.264c1.194-6.884-1.335-18.4-13.908-17.35a10.717,10.717,0,0,1,3.372,6.252c-13.417-18.826-41.3-3.723-39.9,13.206.913-1.826,6.533-7.446,11.52-8.078C82.919,51.672,72.453,67.056,83.271,79.77c-3.231-10.747,3.3-22.338,11.169-26.693-23.11,25.148.07,37.3,8.64,51.559,8.5-16.3-22.548-18.966-10.818-43.2-4.074,15.735,4.355,23.251,12.293,28.519-7.305-11.028-6.462-23.672-.14-35.122-4.987,4.285-9.343,10.607-8.57,20.933-2.529-8.781.562-16.648,7.024-22.408-4.355-5.058-3.582-13.487,3.091-15.032a8.337,8.337,0,0,1,9.132,4.987c-6.673-9.062-19.317.211-9.413,9.483ZM89.593,42.681c6.111-9.272,20.511-11.59,27.957-3.512C108.067,32.987,96.9,36.008,89.593,42.681Zm24.867,32.8c-7.024-10.818-7.516-21.284,3.582-28.941-9.764,10.26-7.442,19.387-3.582,28.941ZM103.782,63.333c1.124,15.735,20.02,26.833,11.1,43.622C112.845,93.819,96.548,84.266,103.782,63.333Zm9.553-19.106c-1.756,1.686-4.074.07-8.289,2.74-.913-6.252,6.533-5.967,8.289-2.74Zm13.346,8.71c1.054.421,6.322,6.673,7.1,8.008-2.459-2.107-4.5-3.934-7.235-5.971l-2.107.913.421-1.264-4.425-1.264,3.653-1.335c1.756-.632,1.194-1.4.351-2.318,1.475.421,2.74,1.194,2.248,3.231ZM126.05,102.6a10.812,10.812,0,0,0-.07-6.673c2.178-3.934,3.161-9.834,1.264-13.979C135.322,87.778,137.289,98.877,126.05,102.6Z" transform="translate(239.911 235.383)" fill="#747474"/>
          </g>
          <g id="Group_24" data-name="Group 24" transform="translate(-318.627 -110.695)">
            <path id="Path_12-24" data-name="Path 12" d="M141.925,66.634a8.7,8.7,0,0,0,1.826-.7c.07,1.124.281,4.215-1.9,5.83-.281-.211-.632-.351-.843-.492l.913-4.636ZM105.679,52.8a15.847,15.847,0,0,1,4.425-3.3c-15.243,20.582,14.611,33.717,8.359,51.349,4.987-2.74,7.586-7.024,7.727-11.59.421-12.082-18.193-15.313-8.219-33.085-3.793,11.942-.351,16.156,8.219,22.478-1.545-3.723.632-9.132,5.2-11.942l-6.884-2.88,9.483,2.388c-4.285,2.178-8.359,9.413-4.847,13.346,2.318,2.6,6.884.913,8.851,5.83,2.74-1.616,2.88-3.582,3.091-6.182a5.936,5.936,0,0,1,.632,3.582c2.88-2.74,2.529-8.5-1.475-10.326a21.86,21.86,0,0,0-4.5,1.9c-2.318,1.194-1.264,2.6-4.215,2.388,0,0-1.124-1.054,2.88-3.161a31.737,31.737,0,0,1,5.339-2.318l.913-4.566a7.162,7.162,0,0,0-1.686-1.756c-.843-.7-2.178-1.4-3.091-2.107-.351-.281-.843-.351-.913-.632.7-1.475,4.5-.983,5.971-.843a8.939,8.939,0,0,1,2.529-.211c-2.88-2.669-10.256-8.078-13.7-10.747a21.285,21.285,0,0,0-2.6-4.847,10.117,10.117,0,0,1,3.512,4.285l1.967,1.264c1.194-6.884-1.335-18.4-13.908-17.35a10.717,10.717,0,0,1,3.372,6.252c-13.417-18.826-41.3-3.723-39.9,13.206.913-1.826,6.533-7.446,11.52-8.078C82.919,51.672,72.453,67.056,83.271,79.77c-3.231-10.747,3.3-22.338,11.169-26.693-23.11,25.148.07,37.3,8.64,51.559,8.5-16.3-22.548-18.966-10.818-43.2-4.074,15.735,4.355,23.251,12.293,28.519-7.305-11.028-6.462-23.672-.14-35.122-4.987,4.285-9.343,10.607-8.57,20.933-2.529-8.781.562-16.648,7.024-22.408-4.355-5.058-3.582-13.487,3.091-15.032a8.337,8.337,0,0,1,9.132,4.987c-6.673-9.062-19.317.211-9.413,9.483ZM89.593,42.681c6.111-9.272,20.511-11.59,27.957-3.512C108.067,32.987,96.9,36.008,89.593,42.681Zm24.867,32.8c-7.024-10.818-7.516-21.284,3.582-28.941-9.764,10.26-7.442,19.387-3.582,28.941ZM103.782,63.333c1.124,15.735,20.02,26.833,11.1,43.622C112.845,93.819,96.548,84.266,103.782,63.333Zm9.553-19.106c-1.756,1.686-4.074.07-8.289,2.74-.913-6.252,6.533-5.967,8.289-2.74Zm13.346,8.71c1.054.421,6.322,6.673,7.1,8.008-2.459-2.107-4.5-3.934-7.235-5.971l-2.107.913.421-1.264-4.425-1.264,3.653-1.335c1.756-.632,1.194-1.4.351-2.318,1.475.421,2.74,1.194,2.248,3.231ZM126.05,102.6a10.812,10.812,0,0,0-.07-6.673c2.178-3.934,3.161-9.834,1.264-13.979C135.322,87.778,137.289,98.877,126.05,102.6Z" transform="translate(239.911 235.383)" fill="#747474"/>
          </g>
          <g id="Group_25" data-name="Group 25" transform="translate(-172.627 -110.695)">
            <path id="Path_12-25" data-name="Path 12" d="M141.925,66.634a8.7,8.7,0,0,0,1.826-.7c.07,1.124.281,4.215-1.9,5.83-.281-.211-.632-.351-.843-.492l.913-4.636ZM105.679,52.8a15.847,15.847,0,0,1,4.425-3.3c-15.243,20.582,14.611,33.717,8.359,51.349,4.987-2.74,7.586-7.024,7.727-11.59.421-12.082-18.193-15.313-8.219-33.085-3.793,11.942-.351,16.156,8.219,22.478-1.545-3.723.632-9.132,5.2-11.942l-6.884-2.88,9.483,2.388c-4.285,2.178-8.359,9.413-4.847,13.346,2.318,2.6,6.884.913,8.851,5.83,2.74-1.616,2.88-3.582,3.091-6.182a5.936,5.936,0,0,1,.632,3.582c2.88-2.74,2.529-8.5-1.475-10.326a21.86,21.86,0,0,0-4.5,1.9c-2.318,1.194-1.264,2.6-4.215,2.388,0,0-1.124-1.054,2.88-3.161a31.737,31.737,0,0,1,5.339-2.318l.913-4.566a7.162,7.162,0,0,0-1.686-1.756c-.843-.7-2.178-1.4-3.091-2.107-.351-.281-.843-.351-.913-.632.7-1.475,4.5-.983,5.971-.843a8.939,8.939,0,0,1,2.529-.211c-2.88-2.669-10.256-8.078-13.7-10.747a21.285,21.285,0,0,0-2.6-4.847,10.117,10.117,0,0,1,3.512,4.285l1.967,1.264c1.194-6.884-1.335-18.4-13.908-17.35a10.717,10.717,0,0,1,3.372,6.252c-13.417-18.826-41.3-3.723-39.9,13.206.913-1.826,6.533-7.446,11.52-8.078C82.919,51.672,72.453,67.056,83.271,79.77c-3.231-10.747,3.3-22.338,11.169-26.693-23.11,25.148.07,37.3,8.64,51.559,8.5-16.3-22.548-18.966-10.818-43.2-4.074,15.735,4.355,23.251,12.293,28.519-7.305-11.028-6.462-23.672-.14-35.122-4.987,4.285-9.343,10.607-8.57,20.933-2.529-8.781.562-16.648,7.024-22.408-4.355-5.058-3.582-13.487,3.091-15.032a8.337,8.337,0,0,1,9.132,4.987c-6.673-9.062-19.317.211-9.413,9.483ZM89.593,42.681c6.111-9.272,20.511-11.59,27.957-3.512C108.067,32.987,96.9,36.008,89.593,42.681Zm24.867,32.8c-7.024-10.818-7.516-21.284,3.582-28.941-9.764,10.26-7.442,19.387-3.582,28.941ZM103.782,63.333c1.124,15.735,20.02,26.833,11.1,43.622C112.845,93.819,96.548,84.266,103.782,63.333Zm9.553-19.106c-1.756,1.686-4.074.07-8.289,2.74-.913-6.252,6.533-5.967,8.289-2.74Zm13.346,8.71c1.054.421,6.322,6.673,7.1,8.008-2.459-2.107-4.5-3.934-7.235-5.971l-2.107.913.421-1.264-4.425-1.264,3.653-1.335c1.756-.632,1.194-1.4.351-2.318,1.475.421,2.74,1.194,2.248,3.231ZM126.05,102.6a10.812,10.812,0,0,0-.07-6.673c2.178-3.934,3.161-9.834,1.264-13.979C135.322,87.778,137.289,98.877,126.05,102.6Z" transform="translate(239.911 235.383)" fill="#747474"/>
          </g>
          <g id="Group_26" data-name="Group 26" transform="translate(-26.627 -110.695)">
            <path id="Path_12-26" data-name="Path 12" d="M141.925,66.634a8.7,8.7,0,0,0,1.826-.7c.07,1.124.281,4.215-1.9,5.83-.281-.211-.632-.351-.843-.492l.913-4.636ZM105.679,52.8a15.847,15.847,0,0,1,4.425-3.3c-15.243,20.582,14.611,33.717,8.359,51.349,4.987-2.74,7.586-7.024,7.727-11.59.421-12.082-18.193-15.313-8.219-33.085-3.793,11.942-.351,16.156,8.219,22.478-1.545-3.723.632-9.132,5.2-11.942l-6.884-2.88,9.483,2.388c-4.285,2.178-8.359,9.413-4.847,13.346,2.318,2.6,6.884.913,8.851,5.83,2.74-1.616,2.88-3.582,3.091-6.182a5.936,5.936,0,0,1,.632,3.582c2.88-2.74,2.529-8.5-1.475-10.326a21.86,21.86,0,0,0-4.5,1.9c-2.318,1.194-1.264,2.6-4.215,2.388,0,0-1.124-1.054,2.88-3.161a31.737,31.737,0,0,1,5.339-2.318l.913-4.566a7.162,7.162,0,0,0-1.686-1.756c-.843-.7-2.178-1.4-3.091-2.107-.351-.281-.843-.351-.913-.632.7-1.475,4.5-.983,5.971-.843a8.939,8.939,0,0,1,2.529-.211c-2.88-2.669-10.256-8.078-13.7-10.747a21.285,21.285,0,0,0-2.6-4.847,10.117,10.117,0,0,1,3.512,4.285l1.967,1.264c1.194-6.884-1.335-18.4-13.908-17.35a10.717,10.717,0,0,1,3.372,6.252c-13.417-18.826-41.3-3.723-39.9,13.206.913-1.826,6.533-7.446,11.52-8.078C82.919,51.672,72.453,67.056,83.271,79.77c-3.231-10.747,3.3-22.338,11.169-26.693-23.11,25.148.07,37.3,8.64,51.559,8.5-16.3-22.548-18.966-10.818-43.2-4.074,15.735,4.355,23.251,12.293,28.519-7.305-11.028-6.462-23.672-.14-35.122-4.987,4.285-9.343,10.607-8.57,20.933-2.529-8.781.562-16.648,7.024-22.408-4.355-5.058-3.582-13.487,3.091-15.032a8.337,8.337,0,0,1,9.132,4.987c-6.673-9.062-19.317.211-9.413,9.483ZM89.593,42.681c6.111-9.272,20.511-11.59,27.957-3.512C108.067,32.987,96.9,36.008,89.593,42.681Zm24.867,32.8c-7.024-10.818-7.516-21.284,3.582-28.941-9.764,10.26-7.442,19.387-3.582,28.941ZM103.782,63.333c1.124,15.735,20.02,26.833,11.1,43.622C112.845,93.819,96.548,84.266,103.782,63.333Zm9.553-19.106c-1.756,1.686-4.074.07-8.289,2.74-.913-6.252,6.533-5.967,8.289-2.74Zm13.346,8.71c1.054.421,6.322,6.673,7.1,8.008-2.459-2.107-4.5-3.934-7.235-5.971l-2.107.913.421-1.264-4.425-1.264,3.653-1.335c1.756-.632,1.194-1.4.351-2.318,1.475.421,2.74,1.194,2.248,3.231ZM126.05,102.6a10.812,10.812,0,0,0-.07-6.673c2.178-3.934,3.161-9.834,1.264-13.979C135.322,87.778,137.289,98.877,126.05,102.6Z" transform="translate(239.911 235.383)" fill="#747474"/>
          </g>
          <g id="Group_27" data-name="Group 27" transform="translate(119.373 -110.695)">
            <path id="Path_12-27" data-name="Path 12" d="M141.925,66.634a8.7,8.7,0,0,0,1.826-.7c.07,1.124.281,4.215-1.9,5.83-.281-.211-.632-.351-.843-.492l.913-4.636ZM105.679,52.8a15.847,15.847,0,0,1,4.425-3.3c-15.243,20.582,14.611,33.717,8.359,51.349,4.987-2.74,7.586-7.024,7.727-11.59.421-12.082-18.193-15.313-8.219-33.085-3.793,11.942-.351,16.156,8.219,22.478-1.545-3.723.632-9.132,5.2-11.942l-6.884-2.88,9.483,2.388c-4.285,2.178-8.359,9.413-4.847,13.346,2.318,2.6,6.884.913,8.851,5.83,2.74-1.616,2.88-3.582,3.091-6.182a5.936,5.936,0,0,1,.632,3.582c2.88-2.74,2.529-8.5-1.475-10.326a21.86,21.86,0,0,0-4.5,1.9c-2.318,1.194-1.264,2.6-4.215,2.388,0,0-1.124-1.054,2.88-3.161a31.737,31.737,0,0,1,5.339-2.318l.913-4.566a7.162,7.162,0,0,0-1.686-1.756c-.843-.7-2.178-1.4-3.091-2.107-.351-.281-.843-.351-.913-.632.7-1.475,4.5-.983,5.971-.843a8.939,8.939,0,0,1,2.529-.211c-2.88-2.669-10.256-8.078-13.7-10.747a21.285,21.285,0,0,0-2.6-4.847,10.117,10.117,0,0,1,3.512,4.285l1.967,1.264c1.194-6.884-1.335-18.4-13.908-17.35a10.717,10.717,0,0,1,3.372,6.252c-13.417-18.826-41.3-3.723-39.9,13.206.913-1.826,6.533-7.446,11.52-8.078C82.919,51.672,72.453,67.056,83.271,79.77c-3.231-10.747,3.3-22.338,11.169-26.693-23.11,25.148.07,37.3,8.64,51.559,8.5-16.3-22.548-18.966-10.818-43.2-4.074,15.735,4.355,23.251,12.293,28.519-7.305-11.028-6.462-23.672-.14-35.122-4.987,4.285-9.343,10.607-8.57,20.933-2.529-8.781.562-16.648,7.024-22.408-4.355-5.058-3.582-13.487,3.091-15.032a8.337,8.337,0,0,1,9.132,4.987c-6.673-9.062-19.317.211-9.413,9.483ZM89.593,42.681c6.111-9.272,20.511-11.59,27.957-3.512C108.067,32.987,96.9,36.008,89.593,42.681Zm24.867,32.8c-7.024-10.818-7.516-21.284,3.582-28.941-9.764,10.26-7.442,19.387-3.582,28.941ZM103.782,63.333c1.124,15.735,20.02,26.833,11.1,43.622C112.845,93.819,96.548,84.266,103.782,63.333Zm9.553-19.106c-1.756,1.686-4.074.07-8.289,2.74-.913-6.252,6.533-5.967,8.289-2.74Zm13.346,8.71c1.054.421,6.322,6.673,7.1,8.008-2.459-2.107-4.5-3.934-7.235-5.971l-2.107.913.421-1.264-4.425-1.264,3.653-1.335c1.756-.632,1.194-1.4.351-2.318,1.475.421,2.74,1.194,2.248,3.231ZM126.05,102.6a10.812,10.812,0,0,0-.07-6.673c2.178-3.934,3.161-9.834,1.264-13.979C135.322,87.778,137.289,98.877,126.05,102.6Z" transform="translate(239.911 235.383)" fill="#747474"/>
          </g>
          <g id="Group_28" data-name="Group 28" transform="translate(265.373 -110.695)">
            <path id="Path_12-28" data-name="Path 12" d="M141.925,66.634a8.7,8.7,0,0,0,1.826-.7c.07,1.124.281,4.215-1.9,5.83-.281-.211-.632-.351-.843-.492l.913-4.636ZM105.679,52.8a15.847,15.847,0,0,1,4.425-3.3c-15.243,20.582,14.611,33.717,8.359,51.349,4.987-2.74,7.586-7.024,7.727-11.59.421-12.082-18.193-15.313-8.219-33.085-3.793,11.942-.351,16.156,8.219,22.478-1.545-3.723.632-9.132,5.2-11.942l-6.884-2.88,9.483,2.388c-4.285,2.178-8.359,9.413-4.847,13.346,2.318,2.6,6.884.913,8.851,5.83,2.74-1.616,2.88-3.582,3.091-6.182a5.936,5.936,0,0,1,.632,3.582c2.88-2.74,2.529-8.5-1.475-10.326a21.86,21.86,0,0,0-4.5,1.9c-2.318,1.194-1.264,2.6-4.215,2.388,0,0-1.124-1.054,2.88-3.161a31.737,31.737,0,0,1,5.339-2.318l.913-4.566a7.162,7.162,0,0,0-1.686-1.756c-.843-.7-2.178-1.4-3.091-2.107-.351-.281-.843-.351-.913-.632.7-1.475,4.5-.983,5.971-.843a8.939,8.939,0,0,1,2.529-.211c-2.88-2.669-10.256-8.078-13.7-10.747a21.285,21.285,0,0,0-2.6-4.847,10.117,10.117,0,0,1,3.512,4.285l1.967,1.264c1.194-6.884-1.335-18.4-13.908-17.35a10.717,10.717,0,0,1,3.372,6.252c-13.417-18.826-41.3-3.723-39.9,13.206.913-1.826,6.533-7.446,11.52-8.078C82.919,51.672,72.453,67.056,83.271,79.77c-3.231-10.747,3.3-22.338,11.169-26.693-23.11,25.148.07,37.3,8.64,51.559,8.5-16.3-22.548-18.966-10.818-43.2-4.074,15.735,4.355,23.251,12.293,28.519-7.305-11.028-6.462-23.672-.14-35.122-4.987,4.285-9.343,10.607-8.57,20.933-2.529-8.781.562-16.648,7.024-22.408-4.355-5.058-3.582-13.487,3.091-15.032a8.337,8.337,0,0,1,9.132,4.987c-6.673-9.062-19.317.211-9.413,9.483ZM89.593,42.681c6.111-9.272,20.511-11.59,27.957-3.512C108.067,32.987,96.9,36.008,89.593,42.681Zm24.867,32.8c-7.024-10.818-7.516-21.284,3.582-28.941-9.764,10.26-7.442,19.387-3.582,28.941ZM103.782,63.333c1.124,15.735,20.02,26.833,11.1,43.622C112.845,93.819,96.548,84.266,103.782,63.333Zm9.553-19.106c-1.756,1.686-4.074.07-8.289,2.74-.913-6.252,6.533-5.967,8.289-2.74Zm13.346,8.71c1.054.421,6.322,6.673,7.1,8.008-2.459-2.107-4.5-3.934-7.235-5.971l-2.107.913.421-1.264-4.425-1.264,3.653-1.335c1.756-.632,1.194-1.4.351-2.318,1.475.421,2.74,1.194,2.248,3.231ZM126.05,102.6a10.812,10.812,0,0,0-.07-6.673c2.178-3.934,3.161-9.834,1.264-13.979C135.322,87.778,137.289,98.877,126.05,102.6Z" transform="translate(239.911 235.383)" fill="#747474"/>
          </g>
          <g id="Group_29" data-name="Group 29" transform="translate(-318.627 45.305)">
            <path id="Path_12-29" data-name="Path 12" d="M141.925,66.634a8.7,8.7,0,0,0,1.826-.7c.07,1.124.281,4.215-1.9,5.83-.281-.211-.632-.351-.843-.492l.913-4.636ZM105.679,52.8a15.847,15.847,0,0,1,4.425-3.3c-15.243,20.582,14.611,33.717,8.359,51.349,4.987-2.74,7.586-7.024,7.727-11.59.421-12.082-18.193-15.313-8.219-33.085-3.793,11.942-.351,16.156,8.219,22.478-1.545-3.723.632-9.132,5.2-11.942l-6.884-2.88,9.483,2.388c-4.285,2.178-8.359,9.413-4.847,13.346,2.318,2.6,6.884.913,8.851,5.83,2.74-1.616,2.88-3.582,3.091-6.182a5.936,5.936,0,0,1,.632,3.582c2.88-2.74,2.529-8.5-1.475-10.326a21.86,21.86,0,0,0-4.5,1.9c-2.318,1.194-1.264,2.6-4.215,2.388,0,0-1.124-1.054,2.88-3.161a31.737,31.737,0,0,1,5.339-2.318l.913-4.566a7.162,7.162,0,0,0-1.686-1.756c-.843-.7-2.178-1.4-3.091-2.107-.351-.281-.843-.351-.913-.632.7-1.475,4.5-.983,5.971-.843a8.939,8.939,0,0,1,2.529-.211c-2.88-2.669-10.256-8.078-13.7-10.747a21.285,21.285,0,0,0-2.6-4.847,10.117,10.117,0,0,1,3.512,4.285l1.967,1.264c1.194-6.884-1.335-18.4-13.908-17.35a10.717,10.717,0,0,1,3.372,6.252c-13.417-18.826-41.3-3.723-39.9,13.206.913-1.826,6.533-7.446,11.52-8.078C82.919,51.672,72.453,67.056,83.271,79.77c-3.231-10.747,3.3-22.338,11.169-26.693-23.11,25.148.07,37.3,8.64,51.559,8.5-16.3-22.548-18.966-10.818-43.2-4.074,15.735,4.355,23.251,12.293,28.519-7.305-11.028-6.462-23.672-.14-35.122-4.987,4.285-9.343,10.607-8.57,20.933-2.529-8.781.562-16.648,7.024-22.408-4.355-5.058-3.582-13.487,3.091-15.032a8.337,8.337,0,0,1,9.132,4.987c-6.673-9.062-19.317.211-9.413,9.483ZM89.593,42.681c6.111-9.272,20.511-11.59,27.957-3.512C108.067,32.987,96.9,36.008,89.593,42.681Zm24.867,32.8c-7.024-10.818-7.516-21.284,3.582-28.941-9.764,10.26-7.442,19.387-3.582,28.941ZM103.782,63.333c1.124,15.735,20.02,26.833,11.1,43.622C112.845,93.819,96.548,84.266,103.782,63.333Zm9.553-19.106c-1.756,1.686-4.074.07-8.289,2.74-.913-6.252,6.533-5.967,8.289-2.74Zm13.346,8.71c1.054.421,6.322,6.673,7.1,8.008-2.459-2.107-4.5-3.934-7.235-5.971l-2.107.913.421-1.264-4.425-1.264,3.653-1.335c1.756-.632,1.194-1.4.351-2.318,1.475.421,2.74,1.194,2.248,3.231ZM126.05,102.6a10.812,10.812,0,0,0-.07-6.673c2.178-3.934,3.161-9.834,1.264-13.979C135.322,87.778,137.289,98.877,126.05,102.6Z" transform="translate(239.911 235.383)" fill="#747474"/>
          </g>
          <g id="Group_30" data-name="Group 30" transform="translate(-172.627 45.305)">
            <path id="Path_12-30" data-name="Path 12" d="M141.925,66.634a8.7,8.7,0,0,0,1.826-.7c.07,1.124.281,4.215-1.9,5.83-.281-.211-.632-.351-.843-.492l.913-4.636ZM105.679,52.8a15.847,15.847,0,0,1,4.425-3.3c-15.243,20.582,14.611,33.717,8.359,51.349,4.987-2.74,7.586-7.024,7.727-11.59.421-12.082-18.193-15.313-8.219-33.085-3.793,11.942-.351,16.156,8.219,22.478-1.545-3.723.632-9.132,5.2-11.942l-6.884-2.88,9.483,2.388c-4.285,2.178-8.359,9.413-4.847,13.346,2.318,2.6,6.884.913,8.851,5.83,2.74-1.616,2.88-3.582,3.091-6.182a5.936,5.936,0,0,1,.632,3.582c2.88-2.74,2.529-8.5-1.475-10.326a21.86,21.86,0,0,0-4.5,1.9c-2.318,1.194-1.264,2.6-4.215,2.388,0,0-1.124-1.054,2.88-3.161a31.737,31.737,0,0,1,5.339-2.318l.913-4.566a7.162,7.162,0,0,0-1.686-1.756c-.843-.7-2.178-1.4-3.091-2.107-.351-.281-.843-.351-.913-.632.7-1.475,4.5-.983,5.971-.843a8.939,8.939,0,0,1,2.529-.211c-2.88-2.669-10.256-8.078-13.7-10.747a21.285,21.285,0,0,0-2.6-4.847,10.117,10.117,0,0,1,3.512,4.285l1.967,1.264c1.194-6.884-1.335-18.4-13.908-17.35a10.717,10.717,0,0,1,3.372,6.252c-13.417-18.826-41.3-3.723-39.9,13.206.913-1.826,6.533-7.446,11.52-8.078C82.919,51.672,72.453,67.056,83.271,79.77c-3.231-10.747,3.3-22.338,11.169-26.693-23.11,25.148.07,37.3,8.64,51.559,8.5-16.3-22.548-18.966-10.818-43.2-4.074,15.735,4.355,23.251,12.293,28.519-7.305-11.028-6.462-23.672-.14-35.122-4.987,4.285-9.343,10.607-8.57,20.933-2.529-8.781.562-16.648,7.024-22.408-4.355-5.058-3.582-13.487,3.091-15.032a8.337,8.337,0,0,1,9.132,4.987c-6.673-9.062-19.317.211-9.413,9.483ZM89.593,42.681c6.111-9.272,20.511-11.59,27.957-3.512C108.067,32.987,96.9,36.008,89.593,42.681Zm24.867,32.8c-7.024-10.818-7.516-21.284,3.582-28.941-9.764,10.26-7.442,19.387-3.582,28.941ZM103.782,63.333c1.124,15.735,20.02,26.833,11.1,43.622C112.845,93.819,96.548,84.266,103.782,63.333Zm9.553-19.106c-1.756,1.686-4.074.07-8.289,2.74-.913-6.252,6.533-5.967,8.289-2.74Zm13.346,8.71c1.054.421,6.322,6.673,7.1,8.008-2.459-2.107-4.5-3.934-7.235-5.971l-2.107.913.421-1.264-4.425-1.264,3.653-1.335c1.756-.632,1.194-1.4.351-2.318,1.475.421,2.74,1.194,2.248,3.231ZM126.05,102.6a10.812,10.812,0,0,0-.07-6.673c2.178-3.934,3.161-9.834,1.264-13.979C135.322,87.778,137.289,98.877,126.05,102.6Z" transform="translate(239.911 235.383)" fill="#747474"/>
          </g>
          <g id="Group_31" data-name="Group 31" transform="translate(-26.627 45.305)">
            <path id="Path_12-31" data-name="Path 12" d="M141.925,66.634a8.7,8.7,0,0,0,1.826-.7c.07,1.124.281,4.215-1.9,5.83-.281-.211-.632-.351-.843-.492l.913-4.636ZM105.679,52.8a15.847,15.847,0,0,1,4.425-3.3c-15.243,20.582,14.611,33.717,8.359,51.349,4.987-2.74,7.586-7.024,7.727-11.59.421-12.082-18.193-15.313-8.219-33.085-3.793,11.942-.351,16.156,8.219,22.478-1.545-3.723.632-9.132,5.2-11.942l-6.884-2.88,9.483,2.388c-4.285,2.178-8.359,9.413-4.847,13.346,2.318,2.6,6.884.913,8.851,5.83,2.74-1.616,2.88-3.582,3.091-6.182a5.936,5.936,0,0,1,.632,3.582c2.88-2.74,2.529-8.5-1.475-10.326a21.86,21.86,0,0,0-4.5,1.9c-2.318,1.194-1.264,2.6-4.215,2.388,0,0-1.124-1.054,2.88-3.161a31.737,31.737,0,0,1,5.339-2.318l.913-4.566a7.162,7.162,0,0,0-1.686-1.756c-.843-.7-2.178-1.4-3.091-2.107-.351-.281-.843-.351-.913-.632.7-1.475,4.5-.983,5.971-.843a8.939,8.939,0,0,1,2.529-.211c-2.88-2.669-10.256-8.078-13.7-10.747a21.285,21.285,0,0,0-2.6-4.847,10.117,10.117,0,0,1,3.512,4.285l1.967,1.264c1.194-6.884-1.335-18.4-13.908-17.35a10.717,10.717,0,0,1,3.372,6.252c-13.417-18.826-41.3-3.723-39.9,13.206.913-1.826,6.533-7.446,11.52-8.078C82.919,51.672,72.453,67.056,83.271,79.77c-3.231-10.747,3.3-22.338,11.169-26.693-23.11,25.148.07,37.3,8.64,51.559,8.5-16.3-22.548-18.966-10.818-43.2-4.074,15.735,4.355,23.251,12.293,28.519-7.305-11.028-6.462-23.672-.14-35.122-4.987,4.285-9.343,10.607-8.57,20.933-2.529-8.781.562-16.648,7.024-22.408-4.355-5.058-3.582-13.487,3.091-15.032a8.337,8.337,0,0,1,9.132,4.987c-6.673-9.062-19.317.211-9.413,9.483ZM89.593,42.681c6.111-9.272,20.511-11.59,27.957-3.512C108.067,32.987,96.9,36.008,89.593,42.681Zm24.867,32.8c-7.024-10.818-7.516-21.284,3.582-28.941-9.764,10.26-7.442,19.387-3.582,28.941ZM103.782,63.333c1.124,15.735,20.02,26.833,11.1,43.622C112.845,93.819,96.548,84.266,103.782,63.333Zm9.553-19.106c-1.756,1.686-4.074.07-8.289,2.74-.913-6.252,6.533-5.967,8.289-2.74Zm13.346,8.71c1.054.421,6.322,6.673,7.1,8.008-2.459-2.107-4.5-3.934-7.235-5.971l-2.107.913.421-1.264-4.425-1.264,3.653-1.335c1.756-.632,1.194-1.4.351-2.318,1.475.421,2.74,1.194,2.248,3.231ZM126.05,102.6a10.812,10.812,0,0,0-.07-6.673c2.178-3.934,3.161-9.834,1.264-13.979C135.322,87.778,137.289,98.877,126.05,102.6Z" transform="translate(239.911 235.383)" fill="#747474"/>
          </g>
          <g id="Group_32" data-name="Group 32" transform="translate(119.373 45.305)">
            <path id="Path_12-32" data-name="Path 12" d="M141.925,66.634a8.7,8.7,0,0,0,1.826-.7c.07,1.124.281,4.215-1.9,5.83-.281-.211-.632-.351-.843-.492l.913-4.636ZM105.679,52.8a15.847,15.847,0,0,1,4.425-3.3c-15.243,20.582,14.611,33.717,8.359,51.349,4.987-2.74,7.586-7.024,7.727-11.59.421-12.082-18.193-15.313-8.219-33.085-3.793,11.942-.351,16.156,8.219,22.478-1.545-3.723.632-9.132,5.2-11.942l-6.884-2.88,9.483,2.388c-4.285,2.178-8.359,9.413-4.847,13.346,2.318,2.6,6.884.913,8.851,5.83,2.74-1.616,2.88-3.582,3.091-6.182a5.936,5.936,0,0,1,.632,3.582c2.88-2.74,2.529-8.5-1.475-10.326a21.86,21.86,0,0,0-4.5,1.9c-2.318,1.194-1.264,2.6-4.215,2.388,0,0-1.124-1.054,2.88-3.161a31.737,31.737,0,0,1,5.339-2.318l.913-4.566a7.162,7.162,0,0,0-1.686-1.756c-.843-.7-2.178-1.4-3.091-2.107-.351-.281-.843-.351-.913-.632.7-1.475,4.5-.983,5.971-.843a8.939,8.939,0,0,1,2.529-.211c-2.88-2.669-10.256-8.078-13.7-10.747a21.285,21.285,0,0,0-2.6-4.847,10.117,10.117,0,0,1,3.512,4.285l1.967,1.264c1.194-6.884-1.335-18.4-13.908-17.35a10.717,10.717,0,0,1,3.372,6.252c-13.417-18.826-41.3-3.723-39.9,13.206.913-1.826,6.533-7.446,11.52-8.078C82.919,51.672,72.453,67.056,83.271,79.77c-3.231-10.747,3.3-22.338,11.169-26.693-23.11,25.148.07,37.3,8.64,51.559,8.5-16.3-22.548-18.966-10.818-43.2-4.074,15.735,4.355,23.251,12.293,28.519-7.305-11.028-6.462-23.672-.14-35.122-4.987,4.285-9.343,10.607-8.57,20.933-2.529-8.781.562-16.648,7.024-22.408-4.355-5.058-3.582-13.487,3.091-15.032a8.337,8.337,0,0,1,9.132,4.987c-6.673-9.062-19.317.211-9.413,9.483ZM89.593,42.681c6.111-9.272,20.511-11.59,27.957-3.512C108.067,32.987,96.9,36.008,89.593,42.681Zm24.867,32.8c-7.024-10.818-7.516-21.284,3.582-28.941-9.764,10.26-7.442,19.387-3.582,28.941ZM103.782,63.333c1.124,15.735,20.02,26.833,11.1,43.622C112.845,93.819,96.548,84.266,103.782,63.333Zm9.553-19.106c-1.756,1.686-4.074.07-8.289,2.74-.913-6.252,6.533-5.967,8.289-2.74Zm13.346,8.71c1.054.421,6.322,6.673,7.1,8.008-2.459-2.107-4.5-3.934-7.235-5.971l-2.107.913.421-1.264-4.425-1.264,3.653-1.335c1.756-.632,1.194-1.4.351-2.318,1.475.421,2.74,1.194,2.248,3.231ZM126.05,102.6a10.812,10.812,0,0,0-.07-6.673c2.178-3.934,3.161-9.834,1.264-13.979C135.322,87.778,137.289,98.877,126.05,102.6Z" transform="translate(239.911 235.383)" fill="#747474"/>
          </g>
          <g id="Group_33" data-name="Group 33" transform="translate(265.373 45.305)">
            <path id="Path_12-33" data-name="Path 12" d="M141.925,66.634a8.7,8.7,0,0,0,1.826-.7c.07,1.124.281,4.215-1.9,5.83-.281-.211-.632-.351-.843-.492l.913-4.636ZM105.679,52.8a15.847,15.847,0,0,1,4.425-3.3c-15.243,20.582,14.611,33.717,8.359,51.349,4.987-2.74,7.586-7.024,7.727-11.59.421-12.082-18.193-15.313-8.219-33.085-3.793,11.942-.351,16.156,8.219,22.478-1.545-3.723.632-9.132,5.2-11.942l-6.884-2.88,9.483,2.388c-4.285,2.178-8.359,9.413-4.847,13.346,2.318,2.6,6.884.913,8.851,5.83,2.74-1.616,2.88-3.582,3.091-6.182a5.936,5.936,0,0,1,.632,3.582c2.88-2.74,2.529-8.5-1.475-10.326a21.86,21.86,0,0,0-4.5,1.9c-2.318,1.194-1.264,2.6-4.215,2.388,0,0-1.124-1.054,2.88-3.161a31.737,31.737,0,0,1,5.339-2.318l.913-4.566a7.162,7.162,0,0,0-1.686-1.756c-.843-.7-2.178-1.4-3.091-2.107-.351-.281-.843-.351-.913-.632.7-1.475,4.5-.983,5.971-.843a8.939,8.939,0,0,1,2.529-.211c-2.88-2.669-10.256-8.078-13.7-10.747a21.285,21.285,0,0,0-2.6-4.847,10.117,10.117,0,0,1,3.512,4.285l1.967,1.264c1.194-6.884-1.335-18.4-13.908-17.35a10.717,10.717,0,0,1,3.372,6.252c-13.417-18.826-41.3-3.723-39.9,13.206.913-1.826,6.533-7.446,11.52-8.078C82.919,51.672,72.453,67.056,83.271,79.77c-3.231-10.747,3.3-22.338,11.169-26.693-23.11,25.148.07,37.3,8.64,51.559,8.5-16.3-22.548-18.966-10.818-43.2-4.074,15.735,4.355,23.251,12.293,28.519-7.305-11.028-6.462-23.672-.14-35.122-4.987,4.285-9.343,10.607-8.57,20.933-2.529-8.781.562-16.648,7.024-22.408-4.355-5.058-3.582-13.487,3.091-15.032a8.337,8.337,0,0,1,9.132,4.987c-6.673-9.062-19.317.211-9.413,9.483ZM89.593,42.681c6.111-9.272,20.511-11.59,27.957-3.512C108.067,32.987,96.9,36.008,89.593,42.681Zm24.867,32.8c-7.024-10.818-7.516-21.284,3.582-28.941-9.764,10.26-7.442,19.387-3.582,28.941ZM103.782,63.333c1.124,15.735,20.02,26.833,11.1,43.622C112.845,93.819,96.548,84.266,103.782,63.333Zm9.553-19.106c-1.756,1.686-4.074.07-8.289,2.74-.913-6.252,6.533-5.967,8.289-2.74Zm13.346,8.71c1.054.421,6.322,6.673,7.1,8.008-2.459-2.107-4.5-3.934-7.235-5.971l-2.107.913.421-1.264-4.425-1.264,3.653-1.335c1.756-.632,1.194-1.4.351-2.318,1.475.421,2.74,1.194,2.248,3.231ZM126.05,102.6a10.812,10.812,0,0,0-.07-6.673c2.178-3.934,3.161-9.834,1.264-13.979C135.322,87.778,137.289,98.877,126.05,102.6Z" transform="translate(239.911 235.383)" fill="#747474"/>
          </g>
        </g>
      </g>
    </g>
  </g>
</svg>
